<svg width="341" height="95" fill="none" xmlns="http://www.w3.org/2000/svg"><g clip-path="url(#clip0_33_444)"><mask id="a" fill="#fff"><path d="M107.37 70.055V44.872h11.696v25.183h-3.671v-22h-4.355v22h-3.67zm25.259-8.807l-1.799-9.123h-.072l-1.799 9.124 3.67-.001zm-9.069 8.807l5.722-25.183h3.06l5.722 25.183h-3.671l-1.08-5.411h-5.002l-1.079 5.41h-3.672zm19.01 0V44.872h5.506c1.009 0 1.896.13 2.663.39.768.259 1.464.72 2.088 1.379a5.367 5.367 0 011.296 2.336c.239.87.359 2.062.359 3.57 0 1.133-.071 2.087-.215 2.865a5.734 5.734 0 01-.828 2.193 5.457 5.457 0 01-2.016 1.946c-.839.447-1.943.672-3.31.672h-1.872v9.832h-3.671zm3.671-21.787v8.559h1.763c.745 0 1.32-.106 1.728-.318.408-.212.708-.507.9-.885.191-.353.3-.79.323-1.308a18.92 18.92 0 00.072-1.733c0-.589-.012-1.143-.035-1.663-.024-.542-.132-1.014-.325-1.414a2.021 2.021 0 00-.863-.919c-.384-.213-.936-.319-1.656-.319h-1.907zm26.495 0c-.336 0-.612.048-.828.142a1.46 1.46 0 00-.612.424 1.73 1.73 0 00-.395.778 9.91 9.91 0 00-.18 1.026l-.323 2.936a8.356 8.356 0 01-.109.849 52.78 52.78 0 00-.144.741 2.478 2.478 0 01-.216.638 3.64 3.64 0 01-.54.884 3.234 3.234 0 01-.575.565l3.815 12.804h-3.743l-3.24-11.211h-2.051v11.21h-3.67V44.873h3.67V55.66h1.224c.432 0 .78-.058 1.044-.177a1.7 1.7 0 00.648-.495c.166-.21.288-.45.359-.708.076-.303.136-.61.181-.919l.359-3.006c.024-.094.048-.282.072-.566.049-.306.121-.648.216-1.026.103-.398.236-.788.396-1.167.168-.4.384-.778.648-1.132a3.734 3.734 0 011.656-1.202c.671-.26 1.45-.389 2.338-.389v3.395zm14.166 21.787V44.872h5.506c1.007 0 1.895.13 2.663.39.768.259 1.464.72 2.087 1.379a5.352 5.352 0 011.295 2.336c.241.87.36 2.062.36 3.57 0 1.133-.072 2.087-.216 2.865a5.665 5.665 0 01-.828 2.193 5.441 5.441 0 01-2.014 1.946c-.84.447-1.944.672-3.311.672h-1.872v9.832h-3.67zm3.67-21.787v8.559h1.764c.743 0 1.32-.106 1.727-.318.387-.192.702-.502.9-.885.192-.353.3-.79.324-1.308a18.92 18.92 0 00.072-1.733c0-.589-.012-1.143-.037-1.663-.023-.542-.131-1.014-.323-1.414a2.023 2.023 0 00-.864-.919c-.384-.213-.936-.319-1.655-.319h-1.908zm20.018 0c-1.296 0-2.148.342-2.556 1.026-.383.66-.575 1.628-.575 2.9 0 .637.035 1.203.107 1.697.073.472.204.873.396 1.204.216.33.517.588.9.778.385.165.9.247 1.548.247h1.764v-7.852h-1.584zm1.584 21.787V59.303h-1.692l-3.203 10.752h-3.743l3.491-11.211a4.215 4.215 0 01-1.512-.956 5.24 5.24 0 01-1.043-1.45c-.264-.542-.444-1.178-.54-1.91a17.363 17.363 0 01-.144-2.263c0-4.928 2.159-7.392 6.478-7.392h5.578v25.183h-3.67v-.001zm9.355-18.816c0-.708.143-1.509.432-2.405a6.1 6.1 0 011.404-2.3 7.486 7.486 0 011.87-1.343c.696-.354 1.5-.53 2.412-.53 1.08 0 2.004.188 2.771.565.792.355 1.439.837 1.944 1.45.54.638.933 1.387 1.151 2.193.239.85.36 1.745.36 2.688 0 .472-.012.955-.036 1.45a5.397 5.397 0 01-.288 1.45c-.145.473-.396.92-.756 1.345-.336.424-.827.813-1.475 1.167.648.259 1.139.6 1.475 1.026.36.4.611.86.756 1.379.168.495.263 1.05.288 1.662.024.59.036 1.203.036 1.84 0 1.06-.121 2.05-.36 2.97-.216.919-.587 1.686-1.116 2.3-.527.611-1.199 1.118-2.015 1.52-.792.4-1.775.601-2.951.601a6.64 6.64 0 01-2.484-.46 5.929 5.929 0 01-1.979-1.273c-.551-.543-.971-1.238-1.259-2.087a7.88 7.88 0 01-.432-2.546v-.955h3.67l.037.99c0 .33.035.66.107.99.097.307.241.59.433.85.191.258.444.47.755.636.312.166.709.248 1.189.248 1.079 0 1.798-.33 2.158-.991.384-.684.576-1.603.576-2.758 0-.661-.024-1.273-.072-1.84-.048-.59-.168-1.048-.36-1.38-.432-.73-1.151-1.095-2.16-1.095h-1.403v-3.184h1.512a2.91 2.91 0 001.224-.247c.36-.166.647-.448.863-.849.192-.377.3-.825.324-1.343.048-.52.072-.979.072-1.38 0-.425-.036-.838-.108-1.238a2.986 2.986 0 00-.396-1.096 2.283 2.283 0 00-.792-.709c-.311-.188-.719-.282-1.223-.282-.456 0-.839.083-1.152.248a2.305 2.305 0 00-.719.637c-.216.282-.373.648-.468 1.096a6.249 6.249 0 00-.144 1.308v.567h-3.671v-.885zm25.236 10.009l-1.8-9.124h-.071l-1.8 9.124h3.671zm-9.069 8.807l5.722-25.183h3.058l5.722 25.183h-3.67l-1.08-5.411h-5.002l-1.08 5.41h-3.67zm19.01 0V44.872h3.67V55.66h4.535V44.873h3.671v25.183h-3.671V58.843h-4.535v11.213h-3.67v-.001zm29.681-7.18v1.556c0 .779-.155 1.521-.468 2.229a5.848 5.848 0 01-1.223 1.838 6.172 6.172 0 01-1.871 1.309 5.56 5.56 0 01-2.267.46 8.363 8.363 0 01-2.124-.283 5.041 5.041 0 01-1.942-.99 5.718 5.718 0 01-1.44-1.804c-.36-.755-.54-1.71-.54-2.865V50.461c0-.825.143-1.592.431-2.3a5.413 5.413 0 013.096-3.04 6.36 6.36 0 012.447-.46c1.727 0 3.131.553 4.21 1.662.529.543.936 1.19 1.223 1.945.313.73.468 1.533.468 2.405v1.415h-3.67v-1.203c0-.707-.204-1.32-.612-1.839-.408-.519-.96-.778-1.655-.778-.912 0-1.524.284-1.836.85-.287.542-.431 1.237-.431 2.086v12.873c0 .73.155 1.345.467 1.84.336.495.924.742 1.764.742.24 0 .492-.035.755-.106.289-.094.552-.235.792-.424a2.14 2.14 0 00.54-.778c.144-.33.216-.742.216-1.238v-1.238h3.67zm18.507-14.607c-.336 0-.612.048-.828.142a1.45 1.45 0 00-.612.424c-.196.22-.333.489-.395.778-.072.307-.133.649-.181 1.026l-.323 2.936a8.654 8.654 0 01-.108.849c-.049.235-.096.482-.144.741a2.566 2.566 0 01-.216.638 3.67 3.67 0 01-.54.884 3.237 3.237 0 01-.576.565l3.814 12.804h-3.742l-3.239-11.211h-2.051v11.21h-3.672V44.873h3.672V55.66h1.224c.431 0 .779-.058 1.042-.177.265-.117.48-.283.649-.495a2 2 0 00.36-.708c.076-.303.136-.61.18-.919l.36-3.006c.036-.187.06-.376.072-.566.047-.306.119-.648.215-1.026a8.3 8.3 0 01.397-1.167c.167-.4.383-.778.647-1.132a3.744 3.744 0 011.656-1.202c.671-.26 1.451-.389 2.339-.389v3.395zm13.353 21.787v-16.34h-.072l-4.822 16.34h-3.671V44.872h3.671v16.376h.072l4.822-16.375h3.671v25.183h-3.671v-.001zm18.374 0v-16.34h-.072l-4.823 16.34h-3.67V44.872h3.67v16.376h.072l4.823-16.375h3.671v25.183h-3.671v-.001zm-4.391-30.24c.025.141.048.319.072.531.025.188.096.389.217.601.144.188.335.354.575.495.264.142.624.212 1.079.212.457 0 .805-.07 1.044-.212.264-.14.456-.306.576-.495a1.4 1.4 0 00.252-.601c.019-.178.043-.355.072-.531h3.059c-.167 1.415-.647 2.453-1.44 3.112-.768.661-1.955.991-3.563.991-1.607 0-2.806-.33-3.598-.99-.768-.66-1.236-1.698-1.403-3.112h3.058zm-222.632-9.677l-1.48 4.149h-.65v-8.935h.546v7.645l1.052-2.949 1.74-4.696h.714v8.935h-.545v-7.901l-1.377 3.752zm6.723-.052v4.2h-.597v-8.934h.597v4.2h2.832v-4.2h.61v8.935h-.61v-4.201h-2.832zm12.465 5.438v-1.237h-4.339v1.237h-.584V33.75h.623c.181-.187.299-.399.351-.638.052-.238.086-.502.104-.791l.364-6.97h3.324v8.399h.754v1.774h-.597zm-3.261-3.203a5.224 5.224 0 01-.104.817 1.185 1.185 0 01-.325.612h2.923v-7.863h-2.156l-.338 6.434zm10.29.306a5.362 5.362 0 01-.26.728 1.49 1.49 0 01-.364.523 1.436 1.436 0 01-.558.332 2.359 2.359 0 01-.818.077v-.524c.416.009.715-.072.897-.243.19-.178.341-.447.454-.804l.377-1.085-2.182-6.28h.61l1.065 3.153.793 2.387.727-2.4.987-3.14h.623l-2.351 7.276zm8.336-7.352c.347 0 .64.059.883.178.251.111.454.268.611.473.164.195.281.434.35.714.078.272.117.57.117.895v.739h-.572v-.778c0-.238-.025-.46-.077-.664a1.371 1.371 0 00-.234-.536 1.165 1.165 0 00-.429-.358 1.429 1.429 0 00-.636-.127 1.43 1.43 0 00-.636.127c-.17.083-.318.205-.429.358-.117.16-.201.343-.247.536a3.22 3.22 0 00-.065.664v4.647c0 .238.022.459.065.664.052.203.134.382.247.534.113.145.255.26.429.346.173.085.384.127.636.127s.463-.042.636-.127c.168-.081.314-.2.429-.346a1.36 1.36 0 00.234-.535 2.7 2.7 0 00.077-.664v-1.06h.572v1.022c0 .323-.039.625-.117.906a1.848 1.848 0 01-.35.714 1.7 1.7 0 01-.611.473c-.243.11-.536.166-.883.166a2.21 2.21 0 01-.896-.166 1.855 1.855 0 01-.611-.473 2.165 2.165 0 01-.351-.714 3.8 3.8 0 01-.103-.907v-4.569a3.642 3.642 0 01.103-.894c.079-.28.195-.519.351-.714.165-.205.368-.362.611-.473a2.06 2.06 0 01.896-.178zm7.82 9.012v-8.4h-1.858v-.535h4.312v.535h-1.857v8.4h-.597zm8.399-8.935c.7 0 1.199.199 1.493.6.304.39.455.914.455 1.57v.97c0 .714-.169 1.246-.507 1.594-.337.35-.87.525-1.597.525h-1.131v3.675h-.597v-8.934h1.884zm-.156 4.722c.528 0 .909-.119 1.142-.358.243-.247.364-.642.364-1.186v-1.047c0-.485-.099-.872-.298-1.162-.191-.289-.541-.434-1.052-.434h-1.287v4.187h1.131zm8.315.064l-1.481 4.149h-.649v-8.935h.546v7.645l1.052-2.949 1.74-4.696h.715v8.935h-.545v-7.901l-1.378 3.752zm6.997 2.17l-.455 1.979h-.546l1.988-8.949h.87l2.026 8.949h-.597l-.455-1.98h-2.831zm.09-.51h2.65l-1.337-5.783-1.313 5.783zm9.683-5.91l-.234 6.216a7.922 7.922 0 01-.09.855 1.86 1.86 0 01-.221.689c-.114.198-.28.361-.48.473-.199.11-.468.17-.806.178h-.117v-.536c.26 0 .46-.042.598-.127a.868.868 0 00.325-.358 1.4 1.4 0 00.142-.523c.027-.204.044-.418.052-.639l.273-6.764h3.39v8.935h-.611v-8.4h-2.221zm8.787 3.14c.735 0 1.273.174 1.611.523.337.349.506.88.506 1.595v.97c0 .324-.039.622-.117.894a1.834 1.834 0 01-.338.689 1.504 1.504 0 01-.61.434c-.285.11-.59.162-.896.154h-1.871v-8.935h.597v3.675h1.118zm.156 4.722c.511 0 .865-.144 1.065-.434.199-.289.299-.675.299-1.161v-1.047c0-.545-.122-.936-.365-1.174-.241-.247-.627-.37-1.155-.37h-1.118v4.186h1.274zm6.716-3.664v4.2h-.597v-8.934h.597v4.2h2.832v-4.2h.61v8.935h-.61v-4.201h-2.832zm9.372-1.058c.737 0 1.274.174 1.612.523.337.349.506.88.506 1.595v.97a3.2 3.2 0 01-.117.894 1.847 1.847 0 01-.337.689c-.156.188-.36.332-.611.434-.285.11-.59.162-.896.154h-1.871v-8.935h.598v3.675h1.116zm3.572-3.676v8.935h-.597v-8.935h.597zm-3.415 8.398c.511 0 .865-.144 1.065-.434.199-.289.299-.675.299-1.161v-1.047c0-.545-.122-.936-.365-1.174-.241-.247-.627-.37-1.156-.37h-1.116v4.186h1.273zm11.044-10.058c-.009.35-.135.617-.377.804-.242.188-.554.281-.935.281-.372 0-.68-.094-.923-.281-.241-.187-.368-.455-.375-.804h.415c.008.255.099.438.273.548.183.114.395.172.61.166.242 0 .45-.055.623-.166.173-.11.269-.293.286-.548h.403zm-2.753 10.594h-.65v-8.934h.545v7.645l1.143-3.178 1.65-4.467h.714v8.935h-.545v-7.901l-2.857 7.9zm14.635-8.45a1.47 1.47 0 00-.584.102.82.82 0 00-.363.294 1.22 1.22 0 00-.182.472 3.153 3.153 0 00-.052.613v4.99c0 .23.017.439.052.626.034.18.094.332.182.46.087.129.208.23.35.294.156.067.355.102.597.102h.261v.498h-.286a2.41 2.41 0 01-.845-.129 1.362 1.362 0 01-.545-.395 1.682 1.682 0 01-.286-.613 4.027 4.027 0 01-.077-.841v-4.993c0-.314.025-.59.077-.829.051-.226.148-.439.286-.625.144-.175.332-.307.545-.383.225-.094.507-.14.845-.14h.286v.498l-.261-.002zm2.76.051v8.4h-.597v-8.935h4.039v8.935h-.61v-8.4h-2.832zm9.541-.535c.701 0 1.199.199 1.494.6.304.39.454.914.454 1.57v.97c0 .714-.168 1.246-.506 1.594-.338.35-.87.525-1.597.525h-1.131v3.675h-.597v-8.934h1.883zm-.155 4.722c.527 0 .909-.119 1.142-.358.243-.247.364-.642.364-1.186v-1.047c0-.485-.1-.872-.298-1.162-.191-.289-.542-.434-1.053-.434h-1.286v4.187h1.131zm6.146-2.54a3.2 3.2 0 01.118-.894c.077-.28.194-.519.35-.714a1.63 1.63 0 01.623-.473c.251-.12.551-.179.896-.179.347 0 .645.06.897.18.259.11.472.267.636.472.164.195.286.434.364.714.077.272.117.57.117.895v4.569c0 .323-.04.625-.117.906-.078.273-.2.51-.364.714a1.782 1.782 0 01-.636.473c-.252.11-.55.166-.897.166-.345 0-.645-.055-.896-.166a1.815 1.815 0 01-.623-.473 2.102 2.102 0 01-.35-.714 3.352 3.352 0 01-.118-.907v-4.569zm.598 4.609c0 .484.104.889.311 1.212.217.314.576.472 1.078.472.502 0 .863-.158 1.079-.472.225-.323.338-.728.338-1.212v-4.647c0-.485-.113-.886-.338-1.2-.216-.323-.577-.485-1.079-.485s-.861.162-1.078.485c-.207.315-.311.715-.311 1.2v4.647zm10.622 2.13h-.597l-1.923-7.9v7.914h-.532v-8.935h.857l1.909 7.9 1.897-7.9h.857v8.935h-.572v-7.94l-1.896 7.926zm8.402-5.245c.736 0 1.273.174 1.61.523.338.349.507.88.507 1.595v.97c0 .324-.039.622-.117.894a1.82 1.82 0 01-.338.689 1.504 1.504 0 01-.61.434 2.31 2.31 0 01-.896.154h-1.87v-8.935h.597v3.675h1.117zm3.572-3.676v8.935h-.597v-8.935h.597zm-3.416 8.398c.511 0 .866-.144 1.065-.434.2-.289.298-.675.298-1.161v-1.047c0-.545-.12-.936-.363-1.174-.243-.247-.627-.37-1.156-.37h-1.117v4.186h1.273zm8.239-8.398v8.398h2.247v-8.398h.597v8.398h2.247v-8.398h.598v8.935h-6.287v-8.935h.598zm11.721.535l-.234 6.217a8.185 8.185 0 01-.091.855 1.842 1.842 0 01-.22.689 1.272 1.272 0 01-.481.473c-.2.11-.468.17-.806.178h-.116v-.536c.259 0 .459-.042.597-.127a.861.861 0 00.325-.358c.08-.164.129-.341.143-.523a7.87 7.87 0 00.052-.639l.273-6.764h3.39v8.935h-.611v-8.4h-2.221zm10.15 3.6v.536h-2.481v3.727h2.987v.537h-3.584v-8.935h3.584v.535h-2.987v3.6h2.481zm5.255.599v4.2h-.597v-8.934h.597v4.2h2.832v-4.2h.61v8.935h-.61v-4.201h-2.832zm8.255 0v4.2h-.597v-8.934h.597v4.2h2.832v-4.2h.611v8.935h-.611v-4.201h-2.832zm9.373-1.058c.736 0 1.273.174 1.611.523.337.349.507.88.507 1.595v.97c0 .324-.04.622-.118.894a1.82 1.82 0 01-.338.689 1.508 1.508 0 01-.609.434 2.33 2.33 0 01-.897.154h-1.871v-8.935h.598v3.675h1.117zm3.572-3.676v8.935h-.598v-8.935h.598zm-3.416 8.398c.511 0 .866-.144 1.065-.434.2-.289.298-.675.298-1.161v-1.047c0-.545-.12-.936-.363-1.174-.242-.247-.627-.37-1.156-.37h-1.117v4.186h1.273zm11.044-10.058c-.009.35-.134.617-.377.804-.243.188-.554.281-.935.281-.373 0-.68-.094-.922-.281-.242-.187-.368-.455-.377-.804h.416c.008.255.099.438.273.548.173.111.376.166.61.166.243 0 .451-.055.624-.166.173-.11.268-.293.286-.548h.402zm-2.753 10.594h-.649v-8.934h.545v7.645l1.143-3.178 1.649-4.467h.714v8.935h-.545v-7.901l-2.857 7.9zm5.579-8.948c.676 0 1.139.175 1.39.524.251.34.377.826.377 1.456v4.99c0 .315-.03.595-.091.842a1.443 1.443 0 01-.286.613 1.25 1.25 0 01-.545.395 2.41 2.41 0 01-.845.129h-.286v-.498h.261c.476 0 .792-.133.947-.396.165-.264.247-.626.247-1.084v-4.993c0-.45-.082-.808-.247-1.071-.155-.272-.471-.41-.947-.41h-.261v-.497h.286z"/></mask><path d="M107.37 70.055V44.872h11.696v25.183h-3.671v-22h-4.355v22h-3.67zm25.259-8.807l-1.799-9.123h-.072l-1.799 9.124 3.67-.001zm-9.069 8.807l5.722-25.183h3.06l5.722 25.183h-3.671l-1.08-5.411h-5.002l-1.079 5.41h-3.672zm19.01 0V44.872h5.506c1.009 0 1.896.13 2.663.39.768.259 1.464.72 2.088 1.379a5.367 5.367 0 011.296 2.336c.239.87.359 2.062.359 3.57 0 1.133-.071 2.087-.215 2.865a5.734 5.734 0 01-.828 2.193 5.457 5.457 0 01-2.016 1.946c-.839.447-1.943.672-3.31.672h-1.872v9.832h-3.671zm3.671-21.787v8.559h1.763c.745 0 1.32-.106 1.728-.318.408-.212.708-.507.9-.885.191-.353.3-.79.323-1.308a18.92 18.92 0 00.072-1.733c0-.589-.012-1.143-.035-1.663-.024-.542-.132-1.014-.325-1.414a2.021 2.021 0 00-.863-.919c-.384-.213-.936-.319-1.656-.319h-1.907zm26.495 0c-.336 0-.612.048-.828.142a1.46 1.46 0 00-.612.424 1.73 1.73 0 00-.395.778 9.91 9.91 0 00-.18 1.026l-.323 2.936a8.356 8.356 0 01-.109.849 52.78 52.78 0 00-.144.741 2.478 2.478 0 01-.216.638 3.64 3.64 0 01-.54.884 3.234 3.234 0 01-.575.565l3.815 12.804h-3.743l-3.24-11.211h-2.051v11.21h-3.67V44.873h3.67V55.66h1.224c.432 0 .78-.058 1.044-.177a1.7 1.7 0 00.648-.495c.166-.21.288-.45.359-.708.076-.303.136-.61.181-.919l.359-3.006c.024-.094.048-.282.072-.566.049-.306.121-.648.216-1.026.103-.398.236-.788.396-1.167.168-.4.384-.778.648-1.132a3.734 3.734 0 011.656-1.202c.671-.26 1.45-.389 2.338-.389v3.395zm14.166 21.787V44.872h5.506c1.007 0 1.895.13 2.663.39.768.259 1.464.72 2.087 1.379a5.352 5.352 0 011.295 2.336c.241.87.36 2.062.36 3.57 0 1.133-.072 2.087-.216 2.865a5.665 5.665 0 01-.828 2.193 5.441 5.441 0 01-2.014 1.946c-.84.447-1.944.672-3.311.672h-1.872v9.832h-3.67zm3.67-21.787v8.559h1.764c.743 0 1.32-.106 1.727-.318.387-.192.702-.502.9-.885.192-.353.3-.79.324-1.308a18.92 18.92 0 00.072-1.733c0-.589-.012-1.143-.037-1.663-.023-.542-.131-1.014-.323-1.414a2.023 2.023 0 00-.864-.919c-.384-.213-.936-.319-1.655-.319h-1.908zm20.018 0c-1.296 0-2.148.342-2.556 1.026-.383.66-.575 1.628-.575 2.9 0 .637.035 1.203.107 1.697.073.472.204.873.396 1.204.216.33.517.588.9.778.385.165.9.247 1.548.247h1.764v-7.852h-1.584zm1.584 21.787V59.303h-1.692l-3.203 10.752h-3.743l3.491-11.211a4.215 4.215 0 01-1.512-.956 5.24 5.24 0 01-1.043-1.45c-.264-.542-.444-1.178-.54-1.91a17.363 17.363 0 01-.144-2.263c0-4.928 2.159-7.392 6.478-7.392h5.578v25.183h-3.67v-.001zm9.355-18.816c0-.708.143-1.509.432-2.405a6.1 6.1 0 011.404-2.3 7.486 7.486 0 011.87-1.343c.696-.354 1.5-.53 2.412-.53 1.08 0 2.004.188 2.771.565.792.355 1.439.837 1.944 1.45.54.638.933 1.387 1.151 2.193.239.85.36 1.745.36 2.688 0 .472-.012.955-.036 1.45a5.397 5.397 0 01-.288 1.45c-.145.473-.396.92-.756 1.345-.336.424-.827.813-1.475 1.167.648.259 1.139.6 1.475 1.026.36.4.611.86.756 1.379.168.495.263 1.05.288 1.662.024.59.036 1.203.036 1.84 0 1.06-.121 2.05-.36 2.97-.216.919-.587 1.686-1.116 2.3-.527.611-1.199 1.118-2.015 1.52-.792.4-1.775.601-2.951.601a6.64 6.64 0 01-2.484-.46 5.929 5.929 0 01-1.979-1.273c-.551-.543-.971-1.238-1.259-2.087a7.88 7.88 0 01-.432-2.546v-.955h3.67l.037.99c0 .33.035.66.107.99.097.307.241.59.433.85.191.258.444.47.755.636.312.166.709.248 1.189.248 1.079 0 1.798-.33 2.158-.991.384-.684.576-1.603.576-2.758 0-.661-.024-1.273-.072-1.84-.048-.59-.168-1.048-.36-1.38-.432-.73-1.151-1.095-2.16-1.095h-1.403v-3.184h1.512a2.91 2.91 0 001.224-.247c.36-.166.647-.448.863-.849.192-.377.3-.825.324-1.343.048-.52.072-.979.072-1.38 0-.425-.036-.838-.108-1.238a2.986 2.986 0 00-.396-1.096 2.283 2.283 0 00-.792-.709c-.311-.188-.719-.282-1.223-.282-.456 0-.839.083-1.152.248a2.305 2.305 0 00-.719.637c-.216.282-.373.648-.468 1.096a6.249 6.249 0 00-.144 1.308v.567h-3.671v-.885zm25.236 10.009l-1.8-9.124h-.071l-1.8 9.124h3.671zm-9.069 8.807l5.722-25.183h3.058l5.722 25.183h-3.67l-1.08-5.411h-5.002l-1.08 5.41h-3.67zm19.01 0V44.872h3.67V55.66h4.535V44.873h3.671v25.183h-3.671V58.843h-4.535v11.213h-3.67v-.001zm29.681-7.18v1.556c0 .779-.155 1.521-.468 2.229a5.848 5.848 0 01-1.223 1.838 6.172 6.172 0 01-1.871 1.309 5.56 5.56 0 01-2.267.46 8.363 8.363 0 01-2.124-.283 5.041 5.041 0 01-1.942-.99 5.718 5.718 0 01-1.44-1.804c-.36-.755-.54-1.71-.54-2.865V50.461c0-.825.143-1.592.431-2.3a5.413 5.413 0 013.096-3.04 6.36 6.36 0 012.447-.46c1.727 0 3.131.553 4.21 1.662.529.543.936 1.19 1.223 1.945.313.73.468 1.533.468 2.405v1.415h-3.67v-1.203c0-.707-.204-1.32-.612-1.839-.408-.519-.96-.778-1.655-.778-.912 0-1.524.284-1.836.85-.287.542-.431 1.237-.431 2.086v12.873c0 .73.155 1.345.467 1.84.336.495.924.742 1.764.742.24 0 .492-.035.755-.106.289-.094.552-.235.792-.424a2.14 2.14 0 00.54-.778c.144-.33.216-.742.216-1.238v-1.238h3.67zm18.507-14.607c-.336 0-.612.048-.828.142a1.45 1.45 0 00-.612.424c-.196.22-.333.489-.395.778-.072.307-.133.649-.181 1.026l-.323 2.936a8.654 8.654 0 01-.108.849c-.049.235-.096.482-.144.741a2.566 2.566 0 01-.216.638 3.67 3.67 0 01-.54.884 3.237 3.237 0 01-.576.565l3.814 12.804h-3.742l-3.239-11.211h-2.051v11.21h-3.672V44.873h3.672V55.66h1.224c.431 0 .779-.058 1.042-.177.265-.117.48-.283.649-.495a2 2 0 00.36-.708c.076-.303.136-.61.18-.919l.36-3.006c.036-.187.06-.376.072-.566.047-.306.119-.648.215-1.026a8.3 8.3 0 01.397-1.167c.167-.4.383-.778.647-1.132a3.744 3.744 0 011.656-1.202c.671-.26 1.451-.389 2.339-.389v3.395zm13.353 21.787v-16.34h-.072l-4.822 16.34h-3.671V44.872h3.671v16.376h.072l4.822-16.375h3.671v25.183h-3.671v-.001zm18.374 0v-16.34h-.072l-4.823 16.34h-3.67V44.872h3.67v16.376h.072l4.823-16.375h3.671v25.183h-3.671v-.001zm-4.391-30.24c.025.141.048.319.072.531.025.188.096.389.217.601.144.188.335.354.575.495.264.142.624.212 1.079.212.457 0 .805-.07 1.044-.212.264-.14.456-.306.576-.495a1.4 1.4 0 00.252-.601c.019-.178.043-.355.072-.531h3.059c-.167 1.415-.647 2.453-1.44 3.112-.768.661-1.955.991-3.563.991-1.607 0-2.806-.33-3.598-.99-.768-.66-1.236-1.698-1.403-3.112h3.058zm-222.632-9.677l-1.48 4.149h-.65v-8.935h.546v7.645l1.052-2.949 1.74-4.696h.714v8.935h-.545v-7.901l-1.377 3.752zm6.723-.052v4.2h-.597v-8.934h.597v4.2h2.832v-4.2h.61v8.935h-.61v-4.201h-2.832zm12.465 5.438v-1.237h-4.339v1.237h-.584V33.75h.623c.181-.187.299-.399.351-.638.052-.238.086-.502.104-.791l.364-6.97h3.324v8.399h.754v1.774h-.597zm-3.261-3.203a5.224 5.224 0 01-.104.817 1.185 1.185 0 01-.325.612h2.923v-7.863h-2.156l-.338 6.434zm10.29.306a5.362 5.362 0 01-.26.728 1.49 1.49 0 01-.364.523 1.436 1.436 0 01-.558.332 2.359 2.359 0 01-.818.077v-.524c.416.009.715-.072.897-.243.19-.178.341-.447.454-.804l.377-1.085-2.182-6.28h.61l1.065 3.153.793 2.387.727-2.4.987-3.14h.623l-2.351 7.276zm8.336-7.352c.347 0 .64.059.883.178.251.111.454.268.611.473.164.195.281.434.35.714.078.272.117.57.117.895v.739h-.572v-.778c0-.238-.025-.46-.077-.664a1.371 1.371 0 00-.234-.536 1.165 1.165 0 00-.429-.358 1.429 1.429 0 00-.636-.127 1.43 1.43 0 00-.636.127c-.17.083-.318.205-.429.358-.117.16-.201.343-.247.536a3.22 3.22 0 00-.065.664v4.647c0 .238.022.459.065.664.052.203.134.382.247.534.113.145.255.26.429.346.173.085.384.127.636.127s.463-.042.636-.127c.168-.081.314-.2.429-.346a1.36 1.36 0 00.234-.535 2.7 2.7 0 00.077-.664v-1.06h.572v1.022c0 .323-.039.625-.117.906a1.848 1.848 0 01-.35.714 1.7 1.7 0 01-.611.473c-.243.11-.536.166-.883.166a2.21 2.21 0 01-.896-.166 1.855 1.855 0 01-.611-.473 2.165 2.165 0 01-.351-.714 3.8 3.8 0 01-.103-.907v-4.569a3.642 3.642 0 01.103-.894c.079-.28.195-.519.351-.714.165-.205.368-.362.611-.473a2.06 2.06 0 01.896-.178zm7.82 9.012v-8.4h-1.858v-.535h4.312v.535h-1.857v8.4h-.597zm8.399-8.935c.7 0 1.199.199 1.493.6.304.39.455.914.455 1.57v.97c0 .714-.169 1.246-.507 1.594-.337.35-.87.525-1.597.525h-1.131v3.675h-.597v-8.934h1.884zm-.156 4.722c.528 0 .909-.119 1.142-.358.243-.247.364-.642.364-1.186v-1.047c0-.485-.099-.872-.298-1.162-.191-.289-.541-.434-1.052-.434h-1.287v4.187h1.131zm8.315.064l-1.481 4.149h-.649v-8.935h.546v7.645l1.052-2.949 1.74-4.696h.715v8.935h-.545v-7.901l-1.378 3.752zm6.997 2.17l-.455 1.979h-.546l1.988-8.949h.87l2.026 8.949h-.597l-.455-1.98h-2.831zm.09-.51h2.65l-1.337-5.783-1.313 5.783zm9.683-5.91l-.234 6.216a7.922 7.922 0 01-.09.855 1.86 1.86 0 01-.221.689c-.114.198-.28.361-.48.473-.199.11-.468.17-.806.178h-.117v-.536c.26 0 .46-.042.598-.127a.868.868 0 00.325-.358 1.4 1.4 0 00.142-.523c.027-.204.044-.418.052-.639l.273-6.764h3.39v8.935h-.611v-8.4h-2.221zm8.787 3.14c.735 0 1.273.174 1.611.523.337.349.506.88.506 1.595v.97c0 .324-.039.622-.117.894a1.834 1.834 0 01-.338.689 1.504 1.504 0 01-.61.434c-.285.11-.59.162-.896.154h-1.871v-8.935h.597v3.675h1.118v0zm.156 4.722c.511 0 .865-.144 1.065-.434.199-.289.299-.675.299-1.161v-1.047c0-.545-.122-.936-.365-1.174-.241-.247-.627-.37-1.155-.37h-1.118v4.186h1.274zm6.716-3.664v4.2h-.597v-8.934h.597v4.2h2.832v-4.2h.61v8.935h-.61v-4.201h-2.832zm9.372-1.058c.737 0 1.274.174 1.612.523.337.349.506.88.506 1.595v.97a3.2 3.2 0 01-.117.894 1.847 1.847 0 01-.337.689c-.156.188-.36.332-.611.434-.285.11-.59.162-.896.154h-1.871v-8.935h.598v3.675h1.116v0zm3.572-3.676v8.935h-.597v-8.935h.597zm-3.415 8.398c.511 0 .865-.144 1.065-.434.199-.289.299-.675.299-1.161v-1.047c0-.545-.122-.936-.365-1.174-.241-.247-.627-.37-1.156-.37h-1.116v4.186h1.273zm11.044-10.058c-.009.35-.135.617-.377.804-.242.188-.554.281-.935.281-.372 0-.68-.094-.923-.281-.241-.187-.368-.455-.375-.804h.415c.008.255.099.438.273.548.183.114.395.172.61.166.242 0 .45-.055.623-.166.173-.11.269-.293.286-.548h.403zm-2.753 10.594h-.65v-8.934h.545v7.645l1.143-3.178 1.65-4.467h.714v8.935h-.545v-7.901l-2.857 7.9zm14.635-8.45a1.47 1.47 0 00-.584.102.82.82 0 00-.363.294 1.22 1.22 0 00-.182.472 3.153 3.153 0 00-.052.613v4.99c0 .23.017.439.052.626.034.18.094.332.182.46.087.129.208.23.35.294.156.067.355.102.597.102h.261v.498h-.286a2.41 2.41 0 01-.845-.129 1.362 1.362 0 01-.545-.395 1.682 1.682 0 01-.286-.613 4.027 4.027 0 01-.077-.841v-4.993c0-.314.025-.59.077-.829.051-.226.148-.439.286-.625.144-.175.332-.307.545-.383.225-.094.507-.14.845-.14h.286v.498l-.261-.002zm2.76.051v8.4h-.597v-8.935h4.039v8.935h-.61v-8.4h-2.832zm9.541-.535c.701 0 1.199.199 1.494.6.304.39.454.914.454 1.57v.97c0 .714-.168 1.246-.506 1.594-.338.35-.87.525-1.597.525h-1.131v3.675h-.597v-8.934h1.883zm-.155 4.722c.527 0 .909-.119 1.142-.358.243-.247.364-.642.364-1.186v-1.047c0-.485-.1-.872-.298-1.162-.191-.289-.542-.434-1.053-.434h-1.286v4.187h1.131zm6.146-2.54a3.2 3.2 0 01.118-.894c.077-.28.194-.519.35-.714a1.63 1.63 0 01.623-.473c.251-.12.551-.179.896-.179.347 0 .645.06.897.18.259.11.472.267.636.472.164.195.286.434.364.714.077.272.117.57.117.895v4.569c0 .323-.04.625-.117.906-.078.273-.2.51-.364.714a1.782 1.782 0 01-.636.473c-.252.11-.55.166-.897.166-.345 0-.645-.055-.896-.166a1.815 1.815 0 01-.623-.473 2.102 2.102 0 01-.35-.714 3.352 3.352 0 01-.118-.907v-4.569zm.598 4.609c0 .484.104.889.311 1.212.217.314.576.472 1.078.472.502 0 .863-.158 1.079-.472.225-.323.338-.728.338-1.212v-4.647c0-.485-.113-.886-.338-1.2-.216-.323-.577-.485-1.079-.485s-.861.162-1.078.485c-.207.315-.311.715-.311 1.2v4.647zm10.622 2.13h-.597l-1.923-7.9v7.914h-.532v-8.935h.857l1.909 7.9 1.897-7.9h.857v8.935h-.572v-7.94l-1.896 7.926zm8.402-5.245c.736 0 1.273.174 1.61.523.338.349.507.88.507 1.595v.97c0 .324-.039.622-.117.894a1.82 1.82 0 01-.338.689 1.504 1.504 0 01-.61.434 2.31 2.31 0 01-.896.154h-1.87v-8.935h.597v3.675h1.117v0zm3.572-3.676v8.935h-.597v-8.935h.597zm-3.416 8.398c.511 0 .866-.144 1.065-.434.2-.289.298-.675.298-1.161v-1.047c0-.545-.12-.936-.363-1.174-.243-.247-.627-.37-1.156-.37h-1.117v4.186h1.273zm8.239-8.398v8.398h2.247v-8.398h.597v8.398h2.247v-8.398h.598v8.935h-6.287v-8.935h.598zm11.721.535l-.234 6.217a8.185 8.185 0 01-.091.855 1.842 1.842 0 01-.22.689 1.272 1.272 0 01-.481.473c-.2.11-.468.17-.806.178h-.116v-.536c.259 0 .459-.042.597-.127a.861.861 0 00.325-.358c.08-.164.129-.341.143-.523a7.87 7.87 0 00.052-.639l.273-6.764h3.39v8.935h-.611v-8.4h-2.221zm10.15 3.6v.536h-2.481v3.727h2.987v.537h-3.584v-8.935h3.584v.535h-2.987v3.6h2.481zm5.255.599v4.2h-.597v-8.934h.597v4.2h2.832v-4.2h.61v8.935h-.61v-4.201h-2.832zm8.255 0v4.2h-.597v-8.934h.597v4.2h2.832v-4.2h.611v8.935h-.611v-4.201h-2.832zm9.373-1.058c.736 0 1.273.174 1.611.523.337.349.507.88.507 1.595v.97c0 .324-.04.622-.118.894a1.82 1.82 0 01-.338.689 1.508 1.508 0 01-.609.434 2.33 2.33 0 01-.897.154h-1.871v-8.935h.598v3.675h1.117v0zm3.572-3.676v8.935h-.598v-8.935h.598zm-3.416 8.398c.511 0 .866-.144 1.065-.434.2-.289.298-.675.298-1.161v-1.047c0-.545-.12-.936-.363-1.174-.242-.247-.627-.37-1.156-.37h-1.117v4.186h1.273zm11.044-10.058c-.009.35-.134.617-.377.804-.243.188-.554.281-.935.281-.373 0-.68-.094-.922-.281-.242-.187-.368-.455-.377-.804h.416c.008.255.099.438.273.548.173.111.376.166.61.166.243 0 .451-.055.624-.166.173-.11.268-.293.286-.548h.402zm-2.753 10.594h-.649v-8.934h.545v7.645l1.143-3.178 1.649-4.467h.714v8.935h-.545v-7.901l-2.857 7.9zm5.579-8.948c.676 0 1.139.175 1.39.524.251.34.377.826.377 1.456v4.99c0 .315-.03.595-.091.842a1.443 1.443 0 01-.286.613 1.25 1.25 0 01-.545.395 2.41 2.41 0 01-.845.129h-.286v-.498h.261c.476 0 .792-.133.947-.396.165-.264.247-.626.247-1.084v-4.993c0-.45-.082-.808-.247-1.071-.155-.272-.471-.41-.947-.41h-.261v-.497h.286z" fill="#fff" stroke="#fff" stroke-width="2" mask="url(#a)"/><path fill-rule="evenodd" clip-rule="evenodd" d="M61.29 76.862l-4.705-.197c-3.154 1.536-5.142 3.092-7.549 4.605l5.148.248L51.94 83.3l-5.575-.275c-3.014 2.078-5.348 4.026-7.11 5.683l7.945.381-1.812 2.526-8.51-.498c-1.543 1.7-2.194 2.737-2.194 2.737l-4.632-.017a60.33 60.33 0 012.526-2.972l-21.523-1.26c-3.847 2.518-5.745 4.139-5.745 4.139l-4-.016a71.314 71.314 0 015.08-4.397L.07 89.31l3.74-2.065 5.327.02a89.845 89.845 0 018.98-5.655l-5.923.004 3.737-1.707 5.36.02c18.232-9.27 40.753-14.172 62.439-16.587l6.716-.753 5.95.8c-2.566.516-15.938 4.22-18.285 4.804l2.057.173-2.963 1.127-2.702-.137c-2.71.757-3.494 1.236-5.899 2.062l3.014.168-2.32 1.129L66.1 72.4c-2.54.94-4.388 1.91-6.583 2.894l4.355.184-2.582 1.385zM14.377 87.515a138.283 138.283 0 0110.208-5.581l16.85.845a65.977 65.977 0 00-6.594 5.718l-20.464-.982zm29.482-6.498l-15.777-.763c3.025-1.405 6.872-3.167 10.509-4.589l12.7.79a78.44 78.44 0 00-7.432 4.562zm33.85-15.99c2.333-.413 9.68-1.452 12.13-1.811l2.571.262c-2.245.352-6.455 1.425-8.686 1.866l-6.015-.316zm-3.668.684l6.71.253c-2.193.48-4.372 1.008-6.528 1.587l-7.202-.364c2.275-.516 4.615-1.01 7.019-1.476zm-10.893 2.392c-3.561.562-5.106 1.063-8.325 1.807l9.902.797c2.49-.94 3.296-1.353 5.874-2.127l-7.451-.477zm-10.773 2.81l8.936.919c-2.31.933-4.125 1.644-6.329 2.74l-12.576-.683c2.931-1.076 6.676-1.952 9.97-2.976z" fill="url(#paint0_linear_33_444)"/><path d="M25.919 41.056l7.687-8.664v41.605c-2.59.985-5.153 2.038-7.687 3.157V41.056z" fill="url(#paint1_linear_33_444)"/><path d="M34.944 30.63l7.687-9.07v49.32c-3.016.92-4.7 1.514-7.687 2.613V30.63z" fill="url(#paint2_linear_33_444)"/><path d="M51.69 9.508L44.105 0v70.438c2.95-.884 4.608-1.355 7.583-2.101V9.508z" fill="url(#paint3_linear_33_444)"/><path d="M60.79 20.142l-7.584-9.48v57.294a251.262 251.262 0 017.584-1.646V20.142z" fill="url(#paint4_linear_33_444)"/><path d="M70.089 31.12l-7.75-9.416v44.312c3.03-.548 4.728-.828 7.75-1.27V31.12z" fill="url(#paint5_linear_33_444)"/></g><defs><linearGradient id="paint0_linear_33_444" x1="78.873" y1="60.899" x2="78.748" y2="94.021" gradientUnits="userSpaceOnUse"><stop stop-color="#fff"/><stop offset="1" stop-color="#fff"/></linearGradient><linearGradient id="paint1_linear_33_444" x1="31.561" y1="38.063" x2="31.561" y2="72.177" gradientUnits="userSpaceOnUse"><stop offset=".077" stop-color="#fff"/><stop offset="1" stop-color="#fff"/></linearGradient><linearGradient id="paint2_linear_33_444" x1="31.561" y1="38.064" x2="31.561" y2="72.177" gradientUnits="userSpaceOnUse"><stop offset=".077" stop-color="#fff"/><stop offset="1" stop-color="#fff"/></linearGradient><linearGradient id="paint3_linear_33_444" x1="63.314" y1="27.209" x2="63.314" y2="75.083" gradientUnits="userSpaceOnUse"><stop stop-color="#00ECFF"/><stop offset=".349" stop-color="#08E0F1"/><stop offset="1" stop-color="#019AAA"/></linearGradient><linearGradient id="paint4_linear_33_444" x1="63.314" y1="27.209" x2="63.314" y2="75.084" gradientUnits="userSpaceOnUse"><stop stop-color="#00ECFF"/><stop offset=".349" stop-color="#08E0F1"/><stop offset="1" stop-color="#019AAA"/></linearGradient><linearGradient id="paint5_linear_33_444" x1="63.314" y1="27.209" x2="63.314" y2="75.083" gradientUnits="userSpaceOnUse"><stop stop-color="#00ECFF"/><stop offset=".349" stop-color="#08E0F1"/><stop offset="1" stop-color="#019AAA"/></linearGradient><clipPath id="clip0_33_444"><path fill="#fff" transform="translate(.056)" d="M0 0h340.236v94.088H0z"/></clipPath></defs></svg>