<svg width="300" height="83" fill="none" xmlns="http://www.w3.org/2000/svg"><g clip-path="url(#clip0_33_945)"><path d="M94.623 61.799V39.584h10.313V61.8h-3.237V42.392h-3.84V61.8h-3.236zm22.272-7.769l-1.586-8.048h-.063l-1.587 8.049h3.236zm-7.996 7.769l5.045-22.215h2.698l5.046 22.215h-3.237l-.953-4.773h-4.41l-.952 4.773h-3.237zm16.762 0V39.584h4.855c.889 0 1.672.115 2.348.344.677.228 1.291.635 1.841 1.217.548.58.941 1.288 1.142 2.06.211.768.317 1.82.317 3.15 0 .999-.063 1.84-.19 2.527a5.048 5.048 0 01-.73 1.934 4.81 4.81 0 01-1.777 1.717c-.74.395-1.713.593-2.919.593h-1.651v8.673h-3.236zm3.236-19.219v7.55h1.555c.657 0 1.164-.094 1.523-.28a1.78 1.78 0 00.794-.781c.169-.312.265-.697.285-1.154.042-.458.064-.966.064-1.529 0-.52-.011-1.008-.031-1.466-.022-.479-.117-.895-.287-1.248a1.782 1.782 0 00-.761-.81c-.338-.188-.825-.282-1.46-.282h-1.682zm23.362 0c-.296 0-.539.042-.73.125a1.28 1.28 0 00-.539.374 1.529 1.529 0 00-.349.686c-.069.3-.121.601-.158.906l-.286 2.59c-.018.25-.05.5-.095.748-.042.208-.084.426-.127.654a2.192 2.192 0 01-.191.563c-.12.281-.281.544-.476.78a2.865 2.865 0 01-.507.498l3.363 11.295h-3.3l-2.856-9.89h-1.809v9.89h-3.236V39.584h3.236v9.517h1.079c.381 0 .688-.052.921-.156.223-.097.419-.247.571-.437.147-.185.254-.397.317-.625a7.98 7.98 0 00.159-.81l.317-2.652a3.64 3.64 0 00.063-.5c.043-.27.107-.572.191-.904a7.43 7.43 0 01.349-1.03 4.75 4.75 0 01.571-.999 3.3 3.3 0 011.46-1.06c.592-.229 1.279-.343 2.062-.343v2.995zm12.491 19.219V39.584h4.854c.889 0 1.671.115 2.349.344.677.228 1.291.635 1.84 1.217a4.732 4.732 0 011.142 2.06c.212.768.318 1.82.318 3.15 0 .999-.064 1.84-.191 2.527a5.011 5.011 0 01-.73 1.934 4.797 4.797 0 01-1.776 1.717c-.741.395-1.714.593-2.919.593h-1.651v8.673h-3.236zm3.236-19.219v7.55h1.555c.656 0 1.164-.094 1.523-.28a1.79 1.79 0 00.794-.781c.169-.312.264-.697.285-1.154.042-.458.064-.966.064-1.529 0-.52-.011-1.008-.032-1.466-.021-.479-.117-.895-.286-1.248a1.782 1.782 0 00-.761-.81c-.339-.188-.826-.282-1.46-.282h-1.682zm17.65 0c-1.142 0-1.893.302-2.253.905-.338.582-.507 1.436-.507 2.559 0 .561.031 1.06.095 1.496.063.416.179.77.348 1.062.191.29.456.52.794.686.339.146.793.218 1.365.218h1.555V42.58h-1.397zm1.397 19.219v-9.485h-1.491l-2.824 9.485h-3.301l3.078-9.89a3.71 3.71 0 01-1.333-.843 4.61 4.61 0 01-.92-1.279c-.232-.478-.392-1.04-.476-1.685a15.263 15.263 0 01-.127-1.996c0-4.347 1.904-6.52 5.712-6.52h4.918V61.8h-3.236v-.001zm8.249-16.598c0-.625.126-1.331.38-2.122a5.39 5.39 0 011.239-2.028 6.596 6.596 0 011.649-1.186c.614-.312 1.322-.467 2.126-.467.952 0 1.767.166 2.443.499.699.312 1.27.738 1.714 1.279a5.009 5.009 0 011.016 1.934c.211.75.317 1.54.317 2.371 0 .417-.01.843-.032 1.28a4.735 4.735 0 01-.254 1.278 3.344 3.344 0 01-.666 1.187c-.296.374-.729.718-1.301 1.029.572.228 1.005.53 1.301.905.317.354.539.759.666 1.217.149.436.233.926.254 1.467.022.519.032 1.06.032 1.621 0 .937-.106 1.81-.317 2.621-.191.81-.518 1.488-.984 2.029-.465.54-1.058.987-1.777 1.341-.699.354-1.565.53-2.602.53a5.852 5.852 0 01-2.19-.406 5.215 5.215 0 01-1.745-1.123c-.486-.478-.856-1.092-1.11-1.84a6.925 6.925 0 01-.381-2.246v-.843h3.236l.032.874c0 .29.032.582.095.873.085.27.212.52.381.749.169.228.392.416.667.561.274.147.624.219 1.047.219.952 0 1.586-.291 1.904-.874.338-.603.507-1.414.507-2.433a19 19 0 00-.064-1.623c-.042-.52-.147-.925-.316-1.217-.381-.644-1.016-.967-1.905-.967h-1.237v-2.808h1.333c.371.007.739-.068 1.079-.218.317-.146.57-.395.761-.749.169-.333.265-.728.285-1.185.043-.458.064-.863.064-1.218a6.12 6.12 0 00-.095-1.091 2.635 2.635 0 00-.349-.967c-.18-.26-.42-.474-.698-.625-.275-.166-.635-.249-1.079-.249-.402 0-.74.073-1.016.219a2.027 2.027 0 00-.634.561c-.19.25-.328.572-.412.967a5.492 5.492 0 00-.127 1.154v.5h-3.237v-.78zm22.251 8.83l-1.587-8.05h-.062l-1.587 8.05h3.236zm-7.996 7.768l5.045-22.215h2.697l5.045 22.215h-3.236l-.952-4.773h-4.411l-.952 4.773h-3.236zm16.762 0V39.584h3.236v9.517h3.999v-9.516h3.236V61.8h-3.236v-9.892h-3.999V61.8h-3.236v-.001zm26.171-6.334v1.373a4.82 4.82 0 01-.412 1.966 5.185 5.185 0 01-1.079 1.622 5.456 5.456 0 01-1.65 1.154 4.903 4.903 0 01-1.999.406 7.365 7.365 0 01-1.872-.25 4.448 4.448 0 01-1.713-.873 5.058 5.058 0 01-1.27-1.591c-.317-.666-.476-1.508-.476-2.527v-12.23c0-.728.126-1.405.38-2.029a4.79 4.79 0 011.079-1.622 4.872 4.872 0 011.651-1.061 5.599 5.599 0 012.157-.405c1.524 0 2.761.488 3.713 1.466a4.96 4.96 0 011.079 1.716 5.35 5.35 0 01.412 2.122v1.248h-3.237v-1.062c0-.624-.179-1.164-.539-1.622-.36-.457-.846-.686-1.459-.686-.804 0-1.344.25-1.619.749-.253.478-.38 1.092-.38 1.84v11.357c0 .644.137 1.186.412 1.623.296.436.814.654 1.555.654.212 0 .434-.03.666-.093.254-.083.487-.208.698-.374.191-.166.35-.395.476-.686.127-.292.19-.655.19-1.093v-1.092h3.237zm16.318-12.885c-.296 0-.539.042-.73.125a1.271 1.271 0 00-.539.374 1.508 1.508 0 00-.349.686 8.65 8.65 0 00-.159.906l-.286 2.59c-.019.25-.05.5-.094.748-.043.208-.085.426-.128.654a2.237 2.237 0 01-.19.563c-.127.29-.285.55-.476.78a2.868 2.868 0 01-.508.498l3.363 11.295h-3.3l-2.855-9.89h-1.809v9.89h-3.237V39.584h3.237v9.517h1.079c.38 0 .687-.052.92-.156.233-.104.423-.25.571-.437.148-.187.254-.395.318-.625.067-.267.12-.538.158-.81l.318-2.652c.031-.165.053-.332.063-.5.042-.27.106-.572.19-.904a7.34 7.34 0 01.35-1.03c.147-.353.338-.686.57-.999a3.31 3.31 0 011.46-1.06c.593-.229 1.28-.343 2.063-.343v2.995zm11.774 19.219V47.385h-.063L276.247 61.8h-3.237V39.584h3.237V54.03h.064l4.251-14.445h3.237V61.8h-3.237v-.001zm16.201 0V47.385h-.063L292.447 61.8h-3.236V39.584h3.236V54.03h.064l4.252-14.445H300V61.8h-3.237v-.001zm-3.871-26.675c.021.124.042.28.063.467.022.166.084.343.191.53.127.167.296.313.507.437.233.125.55.188.952.188.402 0 .709-.063.92-.188.233-.124.402-.27.508-.436.128-.188.201-.365.222-.53.017-.157.038-.314.064-.47h2.697c-.148 1.25-.571 2.164-1.269 2.746-.678.584-1.724.874-3.142.874-1.417 0-2.474-.29-3.173-.873-.677-.583-1.09-1.497-1.237-2.745h2.697zM96.588 26.586l-1.305 3.66h-.573v-7.882h.48v6.745l.93-2.602 1.533-4.143h.63v7.882h-.481v-6.97l-1.214 3.31zm5.928-.045v3.705h-.527v-7.882h.527v3.705h2.497v-3.705h.538v7.882h-.538v-3.705h-2.497zm10.99 4.797v-1.092h-3.825v1.092h-.515v-1.565h.549a1.15 1.15 0 00.31-.563 4.64 4.64 0 00.092-.698l.32-6.148h2.932v7.409h.664v1.565h-.527zm-2.874-2.826a4.723 4.723 0 01-.092.72 1.04 1.04 0 01-.287.54h2.577v-6.935h-1.9l-.298 5.675zm9.073.27c-.069.24-.146.454-.23.642a1.324 1.324 0 01-.813.755 2.078 2.078 0 01-.721.067v-.462c.366.008.63-.063.791-.214.168-.157.3-.394.4-.71l.332-.956-1.924-5.54h.539l.939 2.781.699 2.105.641-2.117.87-2.769h.549l-2.072 6.418zm7.349-6.485c.306 0 .565.052.779.157.222.098.401.236.539.417.144.172.248.383.308.63.07.24.104.503.104.789v.652h-.504v-.686c0-.21-.023-.406-.069-.586a1.209 1.209 0 00-.206-.473 1.02 1.02 0 00-.378-.315 1.262 1.262 0 00-.561-.113 1.26 1.26 0 00-.561.113c-.15.072-.28.18-.378.315a1.338 1.338 0 00-.218.473 2.872 2.872 0 00-.057.585v4.1c0 .21.019.405.057.586.046.18.118.337.218.471.1.128.225.23.378.305.153.075.339.112.561.112.222 0 .409-.037.561-.112a1.07 1.07 0 00.378-.305c.1-.134.168-.293.206-.472.048-.192.07-.389.069-.586v-.935h.504v.902c0 .285-.034.551-.104.8a1.64 1.64 0 01-.308.63c-.145.178-.33.32-.539.416a1.867 1.867 0 01-.779.147c-.305 0-.568-.05-.789-.147a1.628 1.628 0 01-.539-.417 1.9 1.9 0 01-.309-.63 3.322 3.322 0 01-.091-.8v-4.03a3.189 3.189 0 01.091-.79c.069-.246.172-.457.309-.63.145-.18.325-.318.539-.416.248-.111.518-.164.789-.157zm6.895 7.95v-7.41h-1.637v-.473h3.802v.473h-1.638v7.41h-.527zm7.407-7.883c.617 0 1.057.176 1.316.53.268.344.402.806.402 1.384v.856c0 .63-.15 1.1-.448 1.407-.297.308-.767.462-1.408.462h-.997v3.242h-.527v-7.88h1.662zm-.138 4.166c.466 0 .801-.105 1.007-.316.214-.217.321-.566.321-1.046v-.924c0-.428-.087-.769-.263-1.024-.168-.255-.477-.383-.927-.383h-1.135v3.693h.997zm7.332.056l-1.306 3.66h-.572v-7.882h.481v6.745l.928-2.602 1.534-4.143h.63v7.882h-.481v-6.97l-1.214 3.31zm6.169 1.914l-.401 1.746h-.482l1.753-7.894h.768l1.786 7.894h-.527l-.4-1.746h-2.497zm.08-.449h2.336l-1.179-5.102-1.157 5.102zm8.538-5.214l-.206 5.484a7.09 7.09 0 01-.081.754 1.63 1.63 0 01-.194.608 1.118 1.118 0 01-.423.417c-.176.097-.413.15-.711.157h-.103v-.473c.229 0 .405-.037.527-.112a.766.766 0 00.287-.315 1.26 1.26 0 00.125-.462 6.19 6.19 0 00.046-.564l.24-5.967h2.989v7.882h-.538v-7.41h-1.958zm7.747 2.77c.649 0 1.123.153 1.421.462.297.307.446.776.446 1.407v.855c0 .286-.035.55-.103.79a1.627 1.627 0 01-.298.607 1.331 1.331 0 01-.538.382 2.04 2.04 0 01-.79.136h-1.65v-7.882h.527v3.242h.985v.001zm.138 4.166c.45 0 .763-.127.939-.383.176-.255.264-.596.264-1.024v-.924c0-.48-.108-.825-.322-1.035-.213-.218-.553-.327-1.019-.327h-.985v3.693h1.123zm5.922-3.232v3.705h-.527v-7.882h.527v3.705h2.496v-3.705h.539v7.882h-.539v-3.705h-2.496zm8.264-.934c.65 0 1.123.153 1.421.462.297.307.446.776.446 1.407v.855c0 .286-.034.55-.103.79a1.644 1.644 0 01-.297.607 1.342 1.342 0 01-.539.382 2.043 2.043 0 01-.79.136h-1.65v-7.882h.528v3.242h.984v.001zm3.149-3.243v7.882h-.526v-7.882h.526zm-3.011 7.409c.45 0 .763-.127.939-.383.175-.255.263-.596.263-1.024v-.924c0-.48-.107-.825-.321-1.035-.213-.218-.553-.327-1.019-.327h-.984v3.693h1.122zm9.737-8.873c-.008.308-.118.544-.332.71-.213.165-.489.247-.824.247-.328 0-.6-.083-.814-.248-.213-.165-.324-.401-.331-.709h.366c.007.225.087.386.241.484.161.1.348.15.538.146a.996.996 0 00.549-.146c.153-.098.237-.259.253-.484h.354zm-2.427 9.345h-.573v-7.88h.481v6.744l1.008-2.804 1.455-3.94h.629v7.881h-.481v-6.97l-2.519 6.97zm12.905-7.454c-.206 0-.378.031-.515.09a.727.727 0 00-.321.26 1.08 1.08 0 00-.16.416 2.81 2.81 0 00-.046.541V28.5a3 3 0 00.046.552c.03.158.083.293.16.406a.738.738 0 00.309.259c.138.06.313.09.527.09h.229v.44h-.252a2.117 2.117 0 01-.744-.114 1.197 1.197 0 01-.481-.349 1.471 1.471 0 01-.252-.54 3.696 3.696 0 01-.069-.743v-4.404c0-.277.023-.521.069-.731.045-.2.131-.387.252-.552.127-.154.293-.27.481-.338.198-.083.446-.124.744-.124h.252v.44l-.229-.001zm2.433.046v7.41h-.527v-7.883h3.562v7.882h-.538v-7.41h-2.497zm8.413-.473c.618 0 1.057.176 1.317.53.268.344.401.806.401 1.384v.856c0 .63-.149 1.1-.447 1.407-.298.308-.767.462-1.408.462h-.997v3.242h-.526v-7.88h1.66zm-.137 4.166c.465 0 .801-.105 1.007-.316.214-.217.321-.566.321-1.046v-.924c0-.428-.088-.769-.263-1.024-.168-.255-.478-.383-.928-.383h-1.134v3.693h.997zm5.419-2.24c0-.286.035-.55.104-.79.068-.246.171-.457.309-.63.146-.18.335-.324.549-.416a1.83 1.83 0 01.791-.158c.305 0 .568.053.79.158.229.098.416.236.561.417.145.172.252.383.321.63.068.24.103.503.103.789v4.03c0 .286-.035.552-.103.8-.069.24-.176.45-.321.63a1.57 1.57 0 01-.561.417 1.951 1.951 0 01-.79.147c-.305 0-.569-.05-.791-.147a1.597 1.597 0 01-.549-.417 1.86 1.86 0 01-.309-.63 2.966 2.966 0 01-.104-.8v-4.03zm.527 4.065c0 .427.092.784.275 1.069.191.277.508.417.951.417.442 0 .76-.14.95-.417.199-.285.298-.642.298-1.07v-4.098c0-.428-.099-.782-.298-1.059-.19-.285-.508-.428-.95-.428-.443 0-.76.143-.951.428-.183.278-.275.63-.275 1.059v4.099zm9.367 1.88h-.527l-1.695-6.97v6.981h-.47v-7.882h.756l1.684 6.97 1.672-6.97h.756v7.882h-.504v-7.004l-1.672 6.992zm7.408-4.628c.649 0 1.123.153 1.42.462.298.307.446.776.446 1.407v.855c0 .286-.034.55-.102.79a1.627 1.627 0 01-.298.607 1.328 1.328 0 01-.539.382c-.251.098-.52.144-.789.136h-1.65v-7.882h.527v3.242h.985v.001zm3.149-3.243v7.882h-.526v-7.882h.526zm-3.011 7.409c.45 0 .763-.127.939-.383.176-.255.263-.596.263-1.024v-.924c0-.48-.107-.825-.321-1.035-.214-.218-.553-.327-1.019-.327h-.985v3.693h1.123zm7.264-7.409v7.409h1.981v-7.409h.527v7.409h1.981v-7.409h.527v7.882h-5.544v-7.882h.528zm10.335.473l-.206 5.484a7.642 7.642 0 01-.08.754 1.65 1.65 0 01-.195.608 1.121 1.121 0 01-.424.417c-.176.097-.412.15-.71.157h-.103v-.473c.229 0 .405-.037.527-.112a.758.758 0 00.286-.315c.071-.145.114-.302.126-.462.023-.18.038-.368.046-.564l.24-5.967h2.99v7.882h-.539v-7.41h-1.958zm8.949 3.175v.473h-2.187v3.288h2.634v.473h-3.161v-7.882h3.161v.473h-2.634v3.175h2.187zm4.634.529v3.705h-.527v-7.882h.527v3.705h2.497v-3.705h.538v7.882h-.538v-3.705h-2.497zm7.279 0v3.705h-.527v-7.882h.527v3.705h2.497v-3.705h.538v7.882h-.538v-3.705h-2.497zm8.264-.934c.649 0 1.123.153 1.421.462.297.307.447.776.447 1.407v.855c0 .286-.035.55-.104.79a1.612 1.612 0 01-.298.607 1.335 1.335 0 01-.537.382 2.045 2.045 0 01-.791.136h-1.649v-7.882h.526v3.242h.985v.001zm3.15-3.243v7.882h-.527v-7.882h.527zm-3.012 7.409c.451 0 .763-.127.939-.383.176-.255.263-.596.263-1.024v-.924c0-.48-.106-.825-.32-1.035-.213-.218-.554-.327-1.02-.327h-.985v3.693h1.123zm9.738-8.873c-.008.308-.118.544-.332.71-.214.165-.489.247-.825.247-.328 0-.599-.083-.813-.248-.213-.165-.325-.401-.332-.709h.366c.008.225.088.386.241.484a.977.977 0 00.538.146.997.997 0 00.55-.146c.152-.098.237-.259.252-.484h.355zm-2.427 9.345h-.573v-7.88h.481v6.744l1.007-2.804 1.454-3.94h.631v7.881h-.481v-6.97l-2.519 6.97zm4.919-7.893c.596 0 1.004.155 1.225.462.222.301.332.729.332 1.284V28.5c0 .279-.026.526-.08.743-.046.211-.13.39-.252.541a1.096 1.096 0 01-.481.349c-.239.082-.491.12-.744.113h-.252v-.44h.229c.42 0 .699-.116.836-.348.145-.233.218-.552.218-.957v-4.404c0-.397-.073-.713-.218-.945-.137-.24-.416-.361-.836-.361h-.229v-.439h.252z" fill="#2B2A29"/><path fill-rule="evenodd" clip-rule="evenodd" d="M53.993 67.804l-4.149-.174c-2.781 1.356-4.534 2.729-6.656 4.063l4.54.218-1.98 1.573-4.916-.242c-2.658 1.833-4.716 3.552-6.27 5.013l7.006.336-1.598 2.229-7.503-.44c-1.36 1.5-1.934 2.415-1.934 2.415l-4.085-.016a53.312 53.312 0 012.227-2.621L9.698 79.046c-3.392 2.222-5.066 3.651-5.066 3.651l-3.528-.013a62.913 62.913 0 014.48-3.879l-5.57-.02 3.297-1.822 4.697.017a79.19 79.19 0 017.917-4.988l-5.222.003 3.295-1.505 4.726.017C34.801 62.33 54.66 58.005 73.78 55.875l5.922-.664 5.248.706c-2.263.455-14.054 3.722-16.124 4.237l1.814.153-2.612.994-2.383-.121c-2.389.668-3.08 1.09-5.201 1.819l2.658.148-2.047.996-2.819-.276c-2.24.83-3.87 1.685-5.804 2.554l3.839.162-2.277 1.221zm-41.367 9.398a121.844 121.844 0 019.001-4.924l14.858.746a58.2 58.2 0 00-5.815 5.044l-18.044-.866zm25.996-5.732l-13.91-.673c2.666-1.24 6.058-2.795 9.265-4.048l11.199.697a69.16 69.16 0 00-6.554 4.024zm29.847-14.105c2.057-.366 8.536-1.281 10.696-1.599l2.267.232c-1.98.31-5.692 1.256-7.66 1.646l-5.303-.28zm-3.234.602l5.916.224c-1.933.423-3.854.888-5.756 1.4l-6.35-.321c2.006-.456 4.07-.892 6.189-1.303zm-9.605 2.11c-3.14.496-4.502.938-7.34 1.595l8.73.703c2.196-.83 2.907-1.194 5.18-1.877l-6.57-.42zm-9.498 2.48l7.879.81c-2.038.823-3.637 1.45-5.581 2.418l-11.09-.604c2.585-.949 5.887-1.721 8.792-2.624z" fill="url(#paint0_linear_33_945)"/><path d="M22.805 36.217l6.777-7.642v36.702a139.725 139.725 0 00-6.777 2.785V36.217z" fill="url(#paint1_linear_33_945)"/><path d="M30.762 27.02l6.778-8v43.507c-2.659.812-4.143 1.335-6.778 2.305V27.02z" fill="url(#paint2_linear_33_945)"/><path d="M45.528 8.388L38.84 0v62.137c2.601-.78 4.063-1.196 6.687-1.854V8.388z" fill="url(#paint3_linear_33_945)"/><path d="M53.552 17.768l-6.687-8.363v50.542c2.612-.601 4.076-.922 6.687-1.452V17.769z" fill="url(#paint4_linear_33_945)"/><path d="M61.751 27.453l-6.832-8.306v39.09c2.671-.484 4.167-.73 6.832-1.121V27.453z" fill="url(#paint5_linear_33_945)"/></g><defs><linearGradient id="paint0_linear_33_945" x1="69.496" y1="53.722" x2="69.386" y2="82.941" gradientUnits="userSpaceOnUse"><stop stop-color="#A1A7AA"/><stop offset="1" stop-color="#535150"/></linearGradient><linearGradient id="paint1_linear_33_945" x1="27.78" y1="33.578" x2="27.78" y2="63.671" gradientUnits="userSpaceOnUse"><stop offset=".077" stop-color="#A1A7AA"/><stop offset="1" stop-color="#535150"/></linearGradient><linearGradient id="paint2_linear_33_945" x1="27.78" y1="33.578" x2="27.78" y2="63.671" gradientUnits="userSpaceOnUse"><stop offset=".077" stop-color="#A1A7AA"/><stop offset="1" stop-color="#535150"/></linearGradient><linearGradient id="paint3_linear_33_945" x1="55.778" y1="24.003" x2="55.778" y2="66.235" gradientUnits="userSpaceOnUse"><stop stop-color="#00ECFF"/><stop offset=".349" stop-color="#08E0F1"/><stop offset="1" stop-color="#019AAA"/></linearGradient><linearGradient id="paint4_linear_33_945" x1="55.777" y1="24.003" x2="55.777" y2="66.235" gradientUnits="userSpaceOnUse"><stop stop-color="#00ECFF"/><stop offset=".349" stop-color="#08E0F1"/><stop offset="1" stop-color="#019AAA"/></linearGradient><linearGradient id="paint5_linear_33_945" x1="55.777" y1="24.003" x2="55.777" y2="66.235" gradientUnits="userSpaceOnUse"><stop stop-color="#00ECFF"/><stop offset=".349" stop-color="#08E0F1"/><stop offset="1" stop-color="#019AAA"/></linearGradient><clipPath id="clip0_33_945"><path fill="#fff" d="M0 0h300v83H0z"/></clipPath></defs></svg>