<svg width="341" height="95" viewBox="0 0 341 95" fill="none" xmlns="http://www.w3.org/2000/svg">
<g clip-path="url(#clip0_33_444)">
<mask id="path-1-inside-1_33_444" fill="white">
<path d="M107.37 70.0546V44.8722H119.066V70.0546H115.395V48.0557H111.04V70.0546H107.37ZM132.629 61.2479L130.83 52.1247H130.758L128.959 61.249L132.629 61.2479ZM123.56 70.0546L129.282 44.8722H132.342L138.064 70.0546H134.393L133.313 64.644H128.311L127.232 70.0546H123.56ZM142.57 70.0546V44.8722H148.076C149.085 44.8722 149.972 45.0028 150.739 45.2618C151.507 45.5208 152.203 45.9813 152.827 46.641C153.449 47.2982 153.895 48.1015 154.123 48.9766C154.362 49.8478 154.482 51.0388 154.482 52.5475C154.482 53.6799 154.411 54.6341 154.267 55.4123C154.145 56.1924 153.863 56.939 153.439 57.6051C152.948 58.418 152.253 59.0887 151.423 59.551C150.584 59.9982 149.48 60.2229 148.113 60.2229H146.241V70.0546H142.57ZM146.241 48.2682V56.8269H148.004C148.749 56.8269 149.324 56.7206 149.732 56.5092C150.14 56.2967 150.44 56.0022 150.632 55.6237C150.823 55.2706 150.932 54.8344 150.955 54.3164C151.003 53.7973 151.027 53.2206 151.027 52.583C151.027 51.9941 151.015 51.4395 150.992 50.9204C150.968 50.378 150.86 49.9064 150.667 49.5057C150.485 49.1154 150.182 48.7935 149.804 48.587C149.42 48.3745 148.868 48.2682 148.148 48.2682H146.241ZM172.736 48.2682C172.4 48.2682 172.124 48.3158 171.908 48.4099C171.671 48.4958 171.46 48.6419 171.296 48.8338C171.1 49.0551 170.964 49.3231 170.901 49.612C170.823 49.9507 170.763 50.2932 170.721 50.6381L170.398 53.5737C170.376 53.8584 170.34 54.1418 170.289 54.4227C170.241 54.6584 170.194 54.9053 170.145 55.1643C170.102 55.3857 170.03 55.6002 169.929 55.8019C169.792 56.121 169.61 56.4189 169.389 56.6863C169.222 56.8977 169.028 57.0874 168.814 57.2508L172.629 70.0546H168.886L165.646 58.8437H163.595V70.0546H159.925V44.8722H163.595V55.6602H164.819C165.251 55.6602 165.599 55.6015 165.863 55.4831C166.116 55.3733 166.338 55.2035 166.511 54.9883C166.677 54.7786 166.799 54.5377 166.87 54.2799C166.946 53.9769 167.006 53.6703 167.051 53.3611L167.41 50.3547C167.434 50.2607 167.458 50.0725 167.482 49.7891C167.531 49.4825 167.603 49.1405 167.698 48.763C167.801 48.365 167.934 47.9751 168.094 47.5963C168.262 47.1956 168.478 46.8181 168.742 46.4639C169.171 45.9172 169.744 45.5009 170.398 45.2618C171.069 45.0028 171.848 44.8733 172.736 44.8733V48.2682ZM186.902 70.0546V44.8722H192.408C193.415 44.8722 194.303 45.0028 195.071 45.2618C195.839 45.5208 196.535 45.9813 197.158 46.641C197.78 47.2979 198.226 48.1014 198.453 48.9766C198.694 49.8478 198.813 51.0388 198.813 52.5475C198.813 53.6799 198.741 54.6341 198.597 55.4123C198.477 56.1927 198.195 56.9395 197.769 57.6051C197.279 58.4181 196.585 59.089 195.755 59.551C194.915 59.9982 193.811 60.2229 192.444 60.2229H190.572V70.0546H186.902ZM190.572 48.2682V56.8269H192.336C193.079 56.8269 193.656 56.7206 194.063 56.5092C194.45 56.3172 194.765 56.007 194.963 55.6237C195.155 55.2706 195.263 54.8344 195.287 54.3164C195.335 53.7973 195.359 53.2206 195.359 52.583C195.359 51.9941 195.347 51.4395 195.322 50.9204C195.299 50.378 195.191 49.9064 194.999 49.5057C194.816 49.1154 194.514 48.7935 194.135 48.587C193.751 48.3745 193.199 48.2682 192.48 48.2682H190.572ZM210.59 48.2682C209.294 48.2682 208.442 48.6102 208.034 49.2943C207.651 49.954 207.459 50.9215 207.459 52.1944C207.459 52.8309 207.494 53.3966 207.566 53.8913C207.639 54.3629 207.77 54.7636 207.962 55.0946C208.178 55.4244 208.479 55.6834 208.862 55.8727C209.247 56.0377 209.762 56.1196 210.41 56.1196H212.174V48.2682H210.59ZM212.174 70.0546V59.3031H210.482L207.279 70.0546H203.536L207.027 58.8437C206.46 58.637 205.945 58.3112 205.515 57.8884C205.087 57.4683 204.734 56.9778 204.472 56.4384C204.208 55.896 204.028 55.2595 203.932 54.5278C203.836 53.7973 203.788 53.0423 203.788 52.2653C203.788 47.3373 205.947 44.8733 210.266 44.8733H215.844V70.0557H212.174V70.0546ZM221.529 51.2392C221.529 50.5307 221.672 49.7304 221.961 48.8338C222.252 47.9727 222.731 47.1872 223.365 46.5348C223.915 45.9932 224.546 45.54 225.235 45.191C225.931 44.8368 226.735 44.6607 227.647 44.6607C228.727 44.6607 229.651 44.8489 230.418 45.2264C231.21 45.5806 231.857 46.0632 232.362 46.6764C232.902 47.3141 233.295 48.0627 233.513 48.8693C233.752 49.7183 233.873 50.6138 233.873 51.5569C233.873 52.0295 233.861 52.5121 233.837 53.0069C233.808 53.5013 233.711 53.9892 233.549 54.457C233.404 54.9296 233.153 55.3768 232.793 55.8019C232.457 56.2258 231.966 56.6155 231.318 56.9686C231.966 57.2276 232.457 57.5696 232.793 57.9947C233.153 58.3954 233.404 58.8548 233.549 59.3739C233.717 59.8687 233.812 60.4233 233.837 61.0365C233.861 61.6254 233.873 62.2386 233.873 62.8751C233.873 63.9366 233.752 64.9262 233.513 65.8461C233.297 66.7648 232.926 67.5319 232.397 68.1451C231.87 68.7573 231.198 69.2642 230.382 69.666C229.59 70.0668 228.607 70.2671 227.431 70.2671C226.581 70.274 225.738 70.1176 224.947 69.8066C224.209 69.5188 223.536 69.086 222.968 68.5337C222.417 67.9913 221.997 67.2961 221.709 66.4471C221.426 65.628 221.28 64.7678 221.277 63.9012V62.9459H224.947L224.984 63.9366C224.984 64.2665 225.019 64.5964 225.091 64.9262C225.188 65.2328 225.332 65.5162 225.524 65.7752C225.715 66.0342 225.968 66.2468 226.279 66.4117C226.591 66.5777 226.988 66.6597 227.468 66.6597C228.547 66.6597 229.266 66.3298 229.626 65.669C230.01 64.9849 230.202 64.0661 230.202 62.9105C230.202 62.2497 230.178 61.6376 230.13 61.0708C230.082 60.4819 229.962 60.0226 229.77 59.6916C229.338 58.961 228.619 58.5958 227.61 58.5958H226.207V55.4123H227.719C228.14 55.4195 228.558 55.3353 228.943 55.1654C229.303 54.9994 229.59 54.7171 229.806 54.3164C229.998 53.9389 230.106 53.4906 230.13 52.9726C230.178 52.4535 230.202 51.9941 230.202 51.5923C230.202 51.1683 230.166 50.7554 230.094 50.3547C230.035 49.9671 229.901 49.5948 229.698 49.2589C229.494 48.964 229.222 48.7213 228.906 48.5505C228.595 48.3623 228.187 48.2682 227.683 48.2682C227.227 48.2682 226.844 48.3512 226.531 48.5161C226.243 48.6811 226.004 48.8925 225.812 49.1526C225.596 49.4349 225.439 49.8013 225.344 50.2485C225.248 50.6968 225.2 51.134 225.2 51.5569V52.1236H221.529V51.2392ZM246.765 61.2479L244.965 52.1236H244.894L243.094 61.2479H246.765ZM237.696 70.0546L243.418 44.8722H246.476L252.198 70.0546H248.528L247.448 64.644H242.446L241.366 70.0546H237.696ZM256.706 70.0546V44.8722H260.376V55.6602H264.911V44.8733H268.582V70.0557H264.911V58.8426H260.376V70.0557H256.706V70.0546ZM286.387 62.8751V64.4314C286.387 65.2096 286.232 65.9523 285.919 66.6597C285.632 67.3443 285.217 67.9682 284.696 68.4982C284.159 69.0468 283.525 69.4905 282.825 69.8066C282.11 70.1173 281.338 70.2742 280.558 70.2671C279.841 70.2641 279.127 70.1689 278.434 69.9837C277.722 69.7992 277.059 69.4615 276.492 68.9941C275.894 68.4964 275.404 67.8825 275.052 67.1899C274.692 66.435 274.512 65.4808 274.512 64.3252V50.461C274.512 49.6364 274.655 48.8693 274.943 48.1619C275.22 47.4716 275.637 46.8457 276.167 46.3233C276.702 45.7994 277.339 45.3901 278.039 45.1201C278.816 44.8073 279.648 44.6512 280.486 44.6607C282.213 44.6607 283.617 45.2142 284.696 46.3233C285.225 46.8657 285.632 47.5133 285.919 48.2682C286.232 48.9988 286.387 49.8013 286.387 50.6735V52.0882H282.717V50.885C282.717 50.1776 282.513 49.5655 282.105 49.0464C281.697 48.5272 281.145 48.2682 280.45 48.2682C279.538 48.2682 278.926 48.5516 278.614 49.1172C278.327 49.6596 278.183 50.3547 278.183 51.2037V64.0772C278.183 64.8078 278.338 65.4221 278.65 65.9169C278.986 66.4117 279.574 66.6586 280.414 66.6586C280.654 66.6586 280.906 66.6242 281.169 66.5534C281.458 66.4593 281.721 66.3176 281.961 66.1294C282.177 65.9413 282.358 65.6811 282.501 65.3513C282.645 65.0203 282.717 64.6085 282.717 64.1126V62.8751H286.387ZM304.894 48.2682C304.558 48.2682 304.282 48.3158 304.066 48.4099C303.829 48.4952 303.618 48.6414 303.454 48.8338C303.258 49.0548 303.121 49.3229 303.059 49.612C302.987 49.9186 302.926 50.2607 302.878 50.6381L302.555 53.5737C302.533 53.8583 302.497 54.1417 302.447 54.4227C302.398 54.6584 302.351 54.9053 302.303 55.1643C302.259 55.3854 302.187 55.5998 302.087 55.8019C301.943 56.1317 301.763 56.4262 301.547 56.6863C301.379 56.8978 301.186 57.0874 300.971 57.2508L304.785 70.0546H301.043L297.804 58.8437H295.753V70.0546H292.081V44.8722H295.753V55.6602H296.977C297.408 55.6602 297.756 55.6015 298.019 55.4831C298.284 55.3658 298.499 55.1997 298.668 54.9883C298.835 54.7758 298.956 54.54 299.028 54.2799C299.104 53.977 299.164 53.6703 299.208 53.3611L299.568 50.3547C299.604 50.1679 299.628 49.979 299.64 49.7891C299.687 49.4825 299.759 49.1405 299.855 48.763C299.951 48.3866 300.083 47.997 300.252 47.5963C300.419 47.1956 300.635 46.8181 300.899 46.4639C301.328 45.9175 301.902 45.5012 302.555 45.2618C303.226 45.0028 304.006 44.8733 304.894 44.8733V48.2682ZM318.247 70.0546V53.7153H318.175L313.353 70.0546H309.682V44.8722H313.353V61.2479H313.425L318.247 44.8733H321.918V70.0557H318.247V70.0546ZM336.621 70.0546V53.7153H336.549L331.726 70.0546H328.056V44.8722H331.726V61.2479H331.798L336.621 44.8733H340.292V70.0557H336.621V70.0546ZM332.23 39.8158C332.255 39.9563 332.278 40.1335 332.302 40.346C332.327 40.5342 332.398 40.7345 332.519 40.947C332.663 41.1352 332.854 41.3012 333.094 41.4418C333.358 41.5835 333.718 41.6544 334.173 41.6544C334.63 41.6544 334.978 41.5835 335.217 41.4418C335.481 41.3012 335.673 41.1363 335.793 40.947C335.938 40.7345 336.021 40.5342 336.045 40.346C336.064 40.1683 336.088 39.9911 336.117 39.8147H339.176C339.009 41.2304 338.529 42.2676 337.736 42.9273C336.968 43.5881 335.781 43.918 334.173 43.918C332.566 43.918 331.367 43.5881 330.575 42.9273C329.807 42.2676 329.339 41.2304 329.172 39.8158H332.23ZM109.598 30.138L108.118 34.2867H107.468V25.3517H108.014V32.9971L109.066 30.0483L110.806 25.3517H111.52V34.2867H110.975V26.3855L109.598 30.138ZM116.321 30.0859V34.2867H115.724V25.3517H116.321V29.5513H119.153V25.3517H119.763V34.2867H119.153V30.0859H116.321ZM128.786 35.5242V34.2867H124.447V35.5242H123.863V33.7498H124.486C124.667 33.5628 124.785 33.3514 124.837 33.1123C124.889 32.8743 124.923 32.6097 124.941 32.3208L125.305 25.3517H128.629V33.7498H129.383V35.5242H128.786ZM125.525 32.3208C125.512 32.5954 125.477 32.8685 125.421 33.1377C125.376 33.3696 125.263 33.5827 125.096 33.7498H128.019V25.8874H125.863L125.525 32.3208ZM135.815 32.6274C135.738 32.8997 135.65 33.1421 135.555 33.3547C135.473 33.5532 135.349 33.7318 135.191 33.8783C135.033 34.03 134.842 34.1436 134.633 34.2103C134.367 34.2834 134.09 34.3093 133.815 34.2867V33.7631C134.231 33.772 134.53 33.6912 134.712 33.5196C134.902 33.3425 135.053 33.0735 135.166 32.716L135.543 31.6312L133.361 25.3517H133.971L135.036 28.5042L135.829 30.8907L136.556 28.4909L137.543 25.3517H138.166L135.815 32.6274ZM144.151 25.2753C144.498 25.2753 144.791 25.3339 145.034 25.4535C145.285 25.5642 145.488 25.7214 145.645 25.9261C145.809 26.121 145.926 26.3601 145.995 26.6401C146.073 26.9124 146.112 27.2102 146.112 27.5345V28.2739H145.54V27.4958C145.54 27.2578 145.515 27.0364 145.463 26.8316C145.424 26.6383 145.345 26.4555 145.229 26.2959C145.117 26.1437 144.97 26.0209 144.8 25.9383C144.601 25.8477 144.383 25.8042 144.164 25.811C143.912 25.811 143.701 25.8531 143.528 25.9383C143.358 26.0206 143.21 26.1434 143.099 26.2959C142.982 26.4567 142.898 26.6387 142.852 26.8316C142.807 27.0502 142.786 27.2727 142.787 27.4958V32.1426C142.787 32.3806 142.809 32.602 142.852 32.8068C142.904 33.0104 142.986 33.1886 143.099 33.3414C143.212 33.4864 143.354 33.6015 143.528 33.6868C143.701 33.772 143.912 33.8141 144.164 33.8141C144.416 33.8141 144.627 33.772 144.8 33.6868C144.968 33.6058 145.114 33.4877 145.229 33.3414C145.342 33.1886 145.42 33.0093 145.463 32.8056C145.516 32.5884 145.542 32.3652 145.54 32.1415V31.0822H146.112V32.1039C146.112 32.4271 146.073 32.7293 145.995 33.0104C145.931 33.271 145.812 33.5146 145.645 33.7244C145.48 33.9269 145.271 34.0886 145.034 34.197C144.791 34.3077 144.498 34.3631 144.151 34.3631C143.805 34.3631 143.506 34.3077 143.255 34.197C143.021 34.0842 142.812 33.9232 142.644 33.7244C142.484 33.5104 142.365 33.2682 142.293 33.0104C142.222 32.7131 142.188 32.4083 142.19 32.1028V27.5345C142.187 27.2333 142.222 26.9329 142.293 26.6401C142.372 26.3601 142.488 26.121 142.644 25.9261C142.809 25.7214 143.012 25.5642 143.255 25.4535C143.536 25.3276 143.842 25.2674 144.151 25.2753ZM151.971 34.2867V25.8874H150.113V25.3517H154.425V25.8874H152.568V34.2867H151.971ZM160.37 25.3517C161.07 25.3517 161.569 25.5509 161.863 25.9516C162.167 26.3423 162.318 26.8659 162.318 27.5212V28.492C162.318 29.2059 162.149 29.7384 161.811 30.0859C161.474 30.4357 160.941 30.6106 160.214 30.6106H159.083V34.2856H158.486V25.3517H160.37ZM160.214 30.0738C160.742 30.0738 161.123 29.9553 161.356 29.7162C161.599 29.4694 161.72 29.0742 161.72 28.5296V27.4825C161.72 26.9976 161.621 26.6113 161.422 26.3213C161.231 26.0324 160.881 25.8874 160.37 25.8874H159.083V30.0738H160.214ZM168.529 30.138L167.048 34.2867H166.399V25.3517H166.945V32.9971L167.997 30.0483L169.737 25.3517H170.452V34.2867H169.907V26.3855L168.529 30.138ZM175.526 32.3075L175.071 34.2867H174.525L176.513 25.3384H177.383L179.409 34.2867H178.812L178.357 32.3075H175.526ZM175.616 31.7984H178.266L176.929 26.0147L175.616 31.7984ZM185.299 25.8874L185.065 32.1039C185.051 32.3905 185.02 32.6761 184.975 32.9595C184.947 33.2013 184.872 33.4353 184.754 33.648C184.64 33.846 184.474 34.0093 184.274 34.1207C184.075 34.2314 183.806 34.2911 183.468 34.2989H183.351V33.7631C183.611 33.7631 183.811 33.7211 183.949 33.6358C184.089 33.5496 184.202 33.4257 184.274 33.2783C184.355 33.1145 184.403 32.9367 184.416 32.7547C184.443 32.5511 184.46 32.3374 184.468 32.116L184.741 25.3517H188.131V34.2867H187.52V25.8874H185.299ZM194.086 29.0277C194.821 29.0277 195.359 29.2015 195.697 29.5513C196.034 29.9 196.203 30.4313 196.203 31.1464V32.116C196.203 32.4404 196.164 32.7381 196.086 33.0104C196.023 33.2612 195.908 33.4959 195.748 33.6989C195.593 33.8871 195.389 34.031 195.138 34.1328C194.853 34.2428 194.548 34.2951 194.242 34.2867H192.371V25.3517H192.968V29.0266H194.086V29.0277ZM194.242 33.7498C194.753 33.7498 195.107 33.6059 195.307 33.3159C195.506 33.027 195.606 32.6407 195.606 32.1548V31.1076C195.606 30.563 195.484 30.1723 195.241 29.9343C195 29.6875 194.614 29.5635 194.086 29.5635H192.968V33.7498H194.242ZM200.958 30.0859V34.2867H200.361V25.3517H200.958V29.5513H203.79V25.3517H204.4V34.2867H203.79V30.0859H200.958ZM210.33 29.0277C211.067 29.0277 211.604 29.2015 211.942 29.5513C212.279 29.9 212.448 30.4313 212.448 31.1464V32.116C212.448 32.4404 212.41 32.7381 212.331 33.0104C212.268 33.261 212.153 33.4955 211.994 33.6989C211.838 33.8871 211.634 34.031 211.383 34.1328C211.098 34.2428 210.793 34.2951 210.487 34.2867H208.616V25.3517H209.214V29.0266H210.33V29.0277ZM213.902 25.3517V34.2867H213.305V25.3517H213.902ZM210.487 33.7498C210.998 33.7498 211.352 33.6059 211.552 33.3159C211.751 33.027 211.851 32.6407 211.851 32.1548V31.1076C211.851 30.563 211.729 30.1723 211.486 29.9343C211.245 29.6875 210.859 29.5635 210.33 29.5635H209.214V33.7498H210.487ZM221.531 23.6924C221.522 24.0411 221.396 24.3089 221.154 24.496C220.912 24.6842 220.6 24.7772 220.219 24.7772C219.847 24.7772 219.539 24.6831 219.296 24.496C219.055 24.3089 218.928 24.0411 218.921 23.6924H219.336C219.344 23.947 219.435 24.1296 219.609 24.2403C219.792 24.3538 220.004 24.4115 220.219 24.4063C220.461 24.4063 220.669 24.351 220.842 24.2403C221.015 24.1296 221.111 23.947 221.128 23.6924H221.531ZM218.778 34.2856H218.128V25.3517H218.673V32.9971L219.816 29.8192L221.466 25.3517H222.18V34.2867H221.635V26.3855L218.778 34.2856ZM233.413 25.8354C233.18 25.8354 232.984 25.8708 232.829 25.9383C232.682 25.999 232.556 26.1009 232.466 26.2317C232.373 26.3747 232.311 26.5357 232.284 26.7043C232.247 26.9066 232.229 27.1119 232.232 27.3175V32.3075C232.232 32.5378 232.249 32.7459 232.284 32.9329C232.318 33.1123 232.378 33.265 232.466 33.3934C232.553 33.5218 232.674 33.6233 232.816 33.6868C232.972 33.7543 233.171 33.7886 233.413 33.7886H233.674V34.2867H233.388C233.101 34.2946 232.815 34.2511 232.543 34.1583C232.331 34.0743 232.144 33.9384 231.998 33.7631C231.862 33.5803 231.765 33.3716 231.712 33.1499C231.657 32.8729 231.631 32.591 231.635 32.3086V27.3164C231.635 27.0021 231.66 26.7253 231.712 26.4874C231.763 26.2613 231.86 26.0484 231.998 25.8619C232.142 25.6874 232.33 25.5551 232.543 25.479C232.768 25.3849 233.05 25.3384 233.388 25.3384H233.674V25.8365L233.413 25.8354ZM236.173 25.8874V34.2867H235.576V25.3517H239.615V34.2867H239.005V25.8874H236.173ZM245.714 25.3517C246.415 25.3517 246.913 25.5509 247.208 25.9516C247.512 26.3423 247.662 26.8659 247.662 27.5212V28.492C247.662 29.2059 247.494 29.7384 247.156 30.0859C246.818 30.4357 246.286 30.6106 245.559 30.6106H244.428V34.2856H243.831V25.3517H245.714ZM245.559 30.0738C246.086 30.0738 246.468 29.9553 246.701 29.7162C246.944 29.4694 247.065 29.0742 247.065 28.5296V27.4825C247.065 26.9976 246.965 26.6113 246.767 26.3213C246.576 26.0324 246.225 25.8874 245.714 25.8874H244.428V30.0738H245.559ZM251.705 27.5345C251.705 27.2102 251.744 26.9124 251.823 26.6401C251.9 26.3601 252.017 26.121 252.173 25.9261C252.339 25.7204 252.553 25.5582 252.796 25.4535C253.047 25.3339 253.347 25.2742 253.692 25.2742C254.039 25.2742 254.337 25.3339 254.589 25.4535C254.848 25.5642 255.061 25.7214 255.225 25.9261C255.389 26.121 255.511 26.3601 255.589 26.6401C255.666 26.9124 255.706 27.2102 255.706 27.5345V32.1039C255.706 32.4271 255.666 32.7293 255.589 33.0104C255.511 33.2827 255.389 33.5196 255.225 33.7244C255.061 33.9203 254.848 34.0786 254.589 34.197C254.337 34.3077 254.039 34.3631 253.692 34.3631C253.347 34.3631 253.047 34.3077 252.796 34.197C252.556 34.0865 252.344 33.9252 252.173 33.7244C252.012 33.5106 251.893 33.2684 251.823 33.0104C251.742 32.7147 251.703 32.4093 251.705 32.1028V27.5345ZM252.303 32.1426C252.303 32.6274 252.407 33.0315 252.614 33.3547C252.831 33.669 253.19 33.8273 253.692 33.8273C254.194 33.8273 254.555 33.669 254.771 33.3547C254.996 33.0315 255.109 32.6274 255.109 32.1426V27.4958C255.109 27.0109 254.996 26.6102 254.771 26.2959C254.555 25.9726 254.194 25.811 253.692 25.811C253.19 25.811 252.831 25.9726 252.614 26.2959C252.407 26.6113 252.303 27.0109 252.303 27.4958V32.1426ZM262.925 34.2734H262.328L260.405 26.3722V34.2867H259.873V25.3517H260.73L262.639 33.2528L264.536 25.3517H265.393V34.2867H264.821V26.3468L262.925 34.2734ZM271.327 29.0277C272.063 29.0277 272.6 29.2015 272.937 29.5513C273.275 29.9 273.444 30.4313 273.444 31.1464V32.116C273.444 32.4404 273.405 32.7381 273.327 33.0104C273.265 33.2612 273.149 33.4959 272.989 33.6989C272.834 33.8871 272.63 34.031 272.379 34.1328C272.093 34.243 271.789 34.2953 271.483 34.2867H269.613V25.3517H270.21V29.0266H271.327V29.0277ZM274.899 25.3517V34.2867H274.302V25.3517H274.899ZM271.483 33.7498C271.994 33.7498 272.349 33.6059 272.548 33.3159C272.748 33.027 272.846 32.6407 272.846 32.1548V31.1076C272.846 30.563 272.726 30.1723 272.483 29.9343C272.24 29.6875 271.856 29.5635 271.327 29.5635H270.21V33.7498H271.483ZM279.722 25.3517V33.7498H281.969V25.3517H282.566V33.7498H284.813V25.3517H285.411V34.2867H279.124V25.3517H279.722ZM291.443 25.8874L291.209 32.1039C291.194 32.3905 291.163 32.6761 291.118 32.9595C291.091 33.2012 291.016 33.4351 290.898 33.648C290.783 33.846 290.617 34.0093 290.417 34.1207C290.217 34.2314 289.949 34.2911 289.611 34.2989H289.495V33.7631C289.754 33.7631 289.954 33.7211 290.092 33.6358C290.232 33.5503 290.345 33.4261 290.417 33.2783C290.497 33.1144 290.546 32.9367 290.56 32.7547C290.585 32.5511 290.603 32.3374 290.612 32.116L290.885 25.3517H294.275V34.2867H293.664V25.8874H291.443ZM301.593 29.4871V30.0229H299.112V33.7498H302.099V34.2867H298.515V25.3517H302.099V25.8874H299.112V29.4871H301.593ZM306.848 30.0859V34.2867H306.251V25.3517H306.848V29.5513H309.68V25.3517H310.29V34.2867H309.68V30.0859H306.848ZM315.103 30.0859V34.2867H314.506V25.3517H315.103V29.5513H317.935V25.3517H318.546V34.2867H317.935V30.0859H315.103ZM324.476 29.0277C325.212 29.0277 325.749 29.2015 326.087 29.5513C326.424 29.9 326.594 30.4313 326.594 31.1464V32.116C326.594 32.4404 326.554 32.7381 326.476 33.0104C326.414 33.2612 326.298 33.4959 326.138 33.6989C325.983 33.8871 325.779 34.031 325.529 34.1328C325.243 34.2428 324.938 34.2951 324.632 34.2867H322.761V25.3517H323.359V29.0266H324.476V29.0277ZM328.048 25.3517V34.2867H327.45V25.3517H328.048ZM324.632 33.7498C325.143 33.7498 325.498 33.6059 325.697 33.3159C325.897 33.027 325.995 32.6407 325.995 32.1548V31.1076C325.995 30.563 325.875 30.1723 325.632 29.9343C325.39 29.6875 325.005 29.5635 324.476 29.5635H323.359V33.7498H324.632ZM335.676 23.6924C335.667 24.0411 335.542 24.3089 335.299 24.496C335.056 24.6842 334.745 24.7772 334.364 24.7772C333.991 24.7772 333.684 24.6831 333.442 24.496C333.2 24.3089 333.074 24.0411 333.065 23.6924H333.481C333.489 23.947 333.58 24.1296 333.754 24.2403C333.927 24.351 334.13 24.4063 334.364 24.4063C334.607 24.4063 334.815 24.351 334.988 24.2403C335.161 24.1296 335.256 23.947 335.274 23.6924H335.676ZM332.923 34.2856H332.274V25.3517H332.819V32.9971L333.962 29.8192L335.611 25.3517H336.325V34.2867H335.78V26.3855L332.923 34.2856ZM338.502 25.3384C339.178 25.3384 339.641 25.5133 339.892 25.8619C340.143 26.2029 340.269 26.6877 340.269 27.3175V32.3075C340.269 32.623 340.239 32.9031 340.178 33.1499C340.126 33.389 340.03 33.5927 339.892 33.7631C339.75 33.9423 339.561 34.0789 339.347 34.1583C339.075 34.2511 338.789 34.2946 338.502 34.2867H338.216V33.7886H338.477C338.953 33.7886 339.269 33.6558 339.424 33.3934C339.589 33.1289 339.671 32.7669 339.671 32.3086V27.3164C339.671 26.8659 339.589 26.5084 339.424 26.2449C339.269 25.9726 338.953 25.8354 338.477 25.8354H338.216V25.3384H338.502Z"/>
</mask>
<path d="M107.37 70.0546V44.8722H119.066V70.0546H115.395V48.0557H111.04V70.0546H107.37ZM132.629 61.2479L130.83 52.1247H130.758L128.959 61.249L132.629 61.2479ZM123.56 70.0546L129.282 44.8722H132.342L138.064 70.0546H134.393L133.313 64.644H128.311L127.232 70.0546H123.56ZM142.57 70.0546V44.8722H148.076C149.085 44.8722 149.972 45.0028 150.739 45.2618C151.507 45.5208 152.203 45.9813 152.827 46.641C153.449 47.2982 153.895 48.1015 154.123 48.9766C154.362 49.8478 154.482 51.0388 154.482 52.5475C154.482 53.6799 154.411 54.6341 154.267 55.4123C154.145 56.1924 153.863 56.939 153.439 57.6051C152.948 58.418 152.253 59.0887 151.423 59.551C150.584 59.9982 149.48 60.2229 148.113 60.2229H146.241V70.0546H142.57ZM146.241 48.2682V56.8269H148.004C148.749 56.8269 149.324 56.7206 149.732 56.5092C150.14 56.2967 150.44 56.0022 150.632 55.6237C150.823 55.2706 150.932 54.8344 150.955 54.3164C151.003 53.7973 151.027 53.2206 151.027 52.583C151.027 51.9941 151.015 51.4395 150.992 50.9204C150.968 50.378 150.86 49.9064 150.667 49.5057C150.485 49.1154 150.182 48.7935 149.804 48.587C149.42 48.3745 148.868 48.2682 148.148 48.2682H146.241ZM172.736 48.2682C172.4 48.2682 172.124 48.3158 171.908 48.4099C171.671 48.4958 171.46 48.6419 171.296 48.8338C171.1 49.0551 170.964 49.3231 170.901 49.612C170.823 49.9507 170.763 50.2932 170.721 50.6381L170.398 53.5737C170.376 53.8584 170.34 54.1418 170.289 54.4227C170.241 54.6584 170.194 54.9053 170.145 55.1643C170.102 55.3857 170.03 55.6002 169.929 55.8019C169.792 56.121 169.61 56.4189 169.389 56.6863C169.222 56.8977 169.028 57.0874 168.814 57.2508L172.629 70.0546H168.886L165.646 58.8437H163.595V70.0546H159.925V44.8722H163.595V55.6602H164.819C165.251 55.6602 165.599 55.6015 165.863 55.4831C166.116 55.3733 166.338 55.2035 166.511 54.9883C166.677 54.7786 166.799 54.5377 166.87 54.2799C166.946 53.9769 167.006 53.6703 167.051 53.3611L167.41 50.3547C167.434 50.2607 167.458 50.0725 167.482 49.7891C167.531 49.4825 167.603 49.1405 167.698 48.763C167.801 48.365 167.934 47.9751 168.094 47.5963C168.262 47.1956 168.478 46.8181 168.742 46.4639C169.171 45.9172 169.744 45.5009 170.398 45.2618C171.069 45.0028 171.848 44.8733 172.736 44.8733V48.2682ZM186.902 70.0546V44.8722H192.408C193.415 44.8722 194.303 45.0028 195.071 45.2618C195.839 45.5208 196.535 45.9813 197.158 46.641C197.78 47.2979 198.226 48.1014 198.453 48.9766C198.694 49.8478 198.813 51.0388 198.813 52.5475C198.813 53.6799 198.741 54.6341 198.597 55.4123C198.477 56.1927 198.195 56.9395 197.769 57.6051C197.279 58.4181 196.585 59.089 195.755 59.551C194.915 59.9982 193.811 60.2229 192.444 60.2229H190.572V70.0546H186.902ZM190.572 48.2682V56.8269H192.336C193.079 56.8269 193.656 56.7206 194.063 56.5092C194.45 56.3172 194.765 56.007 194.963 55.6237C195.155 55.2706 195.263 54.8344 195.287 54.3164C195.335 53.7973 195.359 53.2206 195.359 52.583C195.359 51.9941 195.347 51.4395 195.322 50.9204C195.299 50.378 195.191 49.9064 194.999 49.5057C194.816 49.1154 194.514 48.7935 194.135 48.587C193.751 48.3745 193.199 48.2682 192.48 48.2682H190.572ZM210.59 48.2682C209.294 48.2682 208.442 48.6102 208.034 49.2943C207.651 49.954 207.459 50.9215 207.459 52.1944C207.459 52.8309 207.494 53.3966 207.566 53.8913C207.639 54.3629 207.77 54.7636 207.962 55.0946C208.178 55.4244 208.479 55.6834 208.862 55.8727C209.247 56.0377 209.762 56.1196 210.41 56.1196H212.174V48.2682H210.59ZM212.174 70.0546V59.3031H210.482L207.279 70.0546H203.536L207.027 58.8437C206.46 58.637 205.945 58.3112 205.515 57.8884C205.087 57.4683 204.734 56.9778 204.472 56.4384C204.208 55.896 204.028 55.2595 203.932 54.5278C203.836 53.7973 203.788 53.0423 203.788 52.2653C203.788 47.3373 205.947 44.8733 210.266 44.8733H215.844V70.0557H212.174V70.0546ZM221.529 51.2392C221.529 50.5307 221.672 49.7304 221.961 48.8338C222.252 47.9727 222.731 47.1872 223.365 46.5348C223.915 45.9932 224.546 45.54 225.235 45.191C225.931 44.8368 226.735 44.6607 227.647 44.6607C228.727 44.6607 229.651 44.8489 230.418 45.2264C231.21 45.5806 231.857 46.0632 232.362 46.6764C232.902 47.3141 233.295 48.0627 233.513 48.8693C233.752 49.7183 233.873 50.6138 233.873 51.5569C233.873 52.0295 233.861 52.5121 233.837 53.0069C233.808 53.5013 233.711 53.9892 233.549 54.457C233.404 54.9296 233.153 55.3768 232.793 55.8019C232.457 56.2258 231.966 56.6155 231.318 56.9686C231.966 57.2276 232.457 57.5696 232.793 57.9947C233.153 58.3954 233.404 58.8548 233.549 59.3739C233.717 59.8687 233.812 60.4233 233.837 61.0365C233.861 61.6254 233.873 62.2386 233.873 62.8751C233.873 63.9366 233.752 64.9262 233.513 65.8461C233.297 66.7648 232.926 67.5319 232.397 68.1451C231.87 68.7573 231.198 69.2642 230.382 69.666C229.59 70.0668 228.607 70.2671 227.431 70.2671C226.581 70.274 225.738 70.1176 224.947 69.8066C224.209 69.5188 223.536 69.086 222.968 68.5337C222.417 67.9913 221.997 67.2961 221.709 66.4471C221.426 65.628 221.28 64.7678 221.277 63.9012V62.9459H224.947L224.984 63.9366C224.984 64.2665 225.019 64.5964 225.091 64.9262C225.188 65.2328 225.332 65.5162 225.524 65.7752C225.715 66.0342 225.968 66.2468 226.279 66.4117C226.591 66.5777 226.988 66.6597 227.468 66.6597C228.547 66.6597 229.266 66.3298 229.626 65.669C230.01 64.9849 230.202 64.0661 230.202 62.9105C230.202 62.2497 230.178 61.6376 230.13 61.0708C230.082 60.4819 229.962 60.0226 229.77 59.6916C229.338 58.961 228.619 58.5958 227.61 58.5958H226.207V55.4123H227.719C228.14 55.4195 228.558 55.3353 228.943 55.1654C229.303 54.9994 229.59 54.7171 229.806 54.3164C229.998 53.9389 230.106 53.4906 230.13 52.9726C230.178 52.4535 230.202 51.9941 230.202 51.5923C230.202 51.1683 230.166 50.7554 230.094 50.3547C230.035 49.9671 229.901 49.5948 229.698 49.2589C229.494 48.964 229.222 48.7213 228.906 48.5505C228.595 48.3623 228.187 48.2682 227.683 48.2682C227.227 48.2682 226.844 48.3512 226.531 48.5161C226.243 48.6811 226.004 48.8925 225.812 49.1526C225.596 49.4349 225.439 49.8013 225.344 50.2485C225.248 50.6968 225.2 51.134 225.2 51.5569V52.1236H221.529V51.2392ZM246.765 61.2479L244.965 52.1236H244.894L243.094 61.2479H246.765ZM237.696 70.0546L243.418 44.8722H246.476L252.198 70.0546H248.528L247.448 64.644H242.446L241.366 70.0546H237.696ZM256.706 70.0546V44.8722H260.376V55.6602H264.911V44.8733H268.582V70.0557H264.911V58.8426H260.376V70.0557H256.706V70.0546ZM286.387 62.8751V64.4314C286.387 65.2096 286.232 65.9523 285.919 66.6597C285.632 67.3443 285.217 67.9682 284.696 68.4982C284.159 69.0468 283.525 69.4905 282.825 69.8066C282.11 70.1173 281.338 70.2742 280.558 70.2671C279.841 70.2641 279.127 70.1689 278.434 69.9837C277.722 69.7992 277.059 69.4615 276.492 68.9941C275.894 68.4964 275.404 67.8825 275.052 67.1899C274.692 66.435 274.512 65.4808 274.512 64.3252V50.461C274.512 49.6364 274.655 48.8693 274.943 48.1619C275.22 47.4716 275.637 46.8457 276.167 46.3233C276.702 45.7994 277.339 45.3901 278.039 45.1201C278.816 44.8073 279.648 44.6512 280.486 44.6607C282.213 44.6607 283.617 45.2142 284.696 46.3233C285.225 46.8657 285.632 47.5133 285.919 48.2682C286.232 48.9988 286.387 49.8013 286.387 50.6735V52.0882H282.717V50.885C282.717 50.1776 282.513 49.5655 282.105 49.0464C281.697 48.5272 281.145 48.2682 280.45 48.2682C279.538 48.2682 278.926 48.5516 278.614 49.1172C278.327 49.6596 278.183 50.3547 278.183 51.2037V64.0772C278.183 64.8078 278.338 65.4221 278.65 65.9169C278.986 66.4117 279.574 66.6586 280.414 66.6586C280.654 66.6586 280.906 66.6242 281.169 66.5534C281.458 66.4593 281.721 66.3176 281.961 66.1294C282.177 65.9413 282.358 65.6811 282.501 65.3513C282.645 65.0203 282.717 64.6085 282.717 64.1126V62.8751H286.387ZM304.894 48.2682C304.558 48.2682 304.282 48.3158 304.066 48.4099C303.829 48.4952 303.618 48.6414 303.454 48.8338C303.258 49.0548 303.121 49.3229 303.059 49.612C302.987 49.9186 302.926 50.2607 302.878 50.6381L302.555 53.5737C302.533 53.8583 302.497 54.1417 302.447 54.4227C302.398 54.6584 302.351 54.9053 302.303 55.1643C302.259 55.3854 302.187 55.5998 302.087 55.8019C301.943 56.1317 301.763 56.4262 301.547 56.6863C301.379 56.8978 301.186 57.0874 300.971 57.2508L304.785 70.0546H301.043L297.804 58.8437H295.753V70.0546H292.081V44.8722H295.753V55.6602H296.977C297.408 55.6602 297.756 55.6015 298.019 55.4831C298.284 55.3658 298.499 55.1997 298.668 54.9883C298.835 54.7758 298.956 54.54 299.028 54.2799C299.104 53.977 299.164 53.6703 299.208 53.3611L299.568 50.3547C299.604 50.1679 299.628 49.979 299.64 49.7891C299.687 49.4825 299.759 49.1405 299.855 48.763C299.951 48.3866 300.083 47.997 300.252 47.5963C300.419 47.1956 300.635 46.8181 300.899 46.4639C301.328 45.9175 301.902 45.5012 302.555 45.2618C303.226 45.0028 304.006 44.8733 304.894 44.8733V48.2682ZM318.247 70.0546V53.7153H318.175L313.353 70.0546H309.682V44.8722H313.353V61.2479H313.425L318.247 44.8733H321.918V70.0557H318.247V70.0546ZM336.621 70.0546V53.7153H336.549L331.726 70.0546H328.056V44.8722H331.726V61.2479H331.798L336.621 44.8733H340.292V70.0557H336.621V70.0546ZM332.23 39.8158C332.255 39.9563 332.278 40.1335 332.302 40.346C332.327 40.5342 332.398 40.7345 332.519 40.947C332.663 41.1352 332.854 41.3012 333.094 41.4418C333.358 41.5835 333.718 41.6544 334.173 41.6544C334.63 41.6544 334.978 41.5835 335.217 41.4418C335.481 41.3012 335.673 41.1363 335.793 40.947C335.938 40.7345 336.021 40.5342 336.045 40.346C336.064 40.1683 336.088 39.9911 336.117 39.8147H339.176C339.009 41.2304 338.529 42.2676 337.736 42.9273C336.968 43.5881 335.781 43.918 334.173 43.918C332.566 43.918 331.367 43.5881 330.575 42.9273C329.807 42.2676 329.339 41.2304 329.172 39.8158H332.23ZM109.598 30.138L108.118 34.2867H107.468V25.3517H108.014V32.9971L109.066 30.0483L110.806 25.3517H111.52V34.2867H110.975V26.3855L109.598 30.138ZM116.321 30.0859V34.2867H115.724V25.3517H116.321V29.5513H119.153V25.3517H119.763V34.2867H119.153V30.0859H116.321ZM128.786 35.5242V34.2867H124.447V35.5242H123.863V33.7498H124.486C124.667 33.5628 124.785 33.3514 124.837 33.1123C124.889 32.8743 124.923 32.6097 124.941 32.3208L125.305 25.3517H128.629V33.7498H129.383V35.5242H128.786ZM125.525 32.3208C125.512 32.5954 125.477 32.8685 125.421 33.1377C125.376 33.3696 125.263 33.5827 125.096 33.7498H128.019V25.8874H125.863L125.525 32.3208ZM135.815 32.6274C135.738 32.8997 135.65 33.1421 135.555 33.3547C135.473 33.5532 135.349 33.7318 135.191 33.8783C135.033 34.03 134.842 34.1436 134.633 34.2103C134.367 34.2834 134.09 34.3093 133.815 34.2867V33.7631C134.231 33.772 134.53 33.6912 134.712 33.5196C134.902 33.3425 135.053 33.0735 135.166 32.716L135.543 31.6312L133.361 25.3517H133.971L135.036 28.5042L135.829 30.8907L136.556 28.4909L137.543 25.3517H138.166L135.815 32.6274ZM144.151 25.2753C144.498 25.2753 144.791 25.3339 145.034 25.4535C145.285 25.5642 145.488 25.7214 145.645 25.9261C145.809 26.121 145.926 26.3601 145.995 26.6401C146.073 26.9124 146.112 27.2102 146.112 27.5345V28.2739H145.54V27.4958C145.54 27.2578 145.515 27.0364 145.463 26.8316C145.424 26.6383 145.345 26.4555 145.229 26.2959C145.117 26.1437 144.97 26.0209 144.8 25.9383C144.601 25.8477 144.383 25.8042 144.164 25.811C143.912 25.811 143.701 25.8531 143.528 25.9383C143.358 26.0206 143.21 26.1434 143.099 26.2959C142.982 26.4567 142.898 26.6387 142.852 26.8316C142.807 27.0502 142.786 27.2727 142.787 27.4958V32.1426C142.787 32.3806 142.809 32.602 142.852 32.8068C142.904 33.0104 142.986 33.1886 143.099 33.3414C143.212 33.4864 143.354 33.6015 143.528 33.6868C143.701 33.772 143.912 33.8141 144.164 33.8141C144.416 33.8141 144.627 33.772 144.8 33.6868C144.968 33.6058 145.114 33.4877 145.229 33.3414C145.342 33.1886 145.42 33.0093 145.463 32.8056C145.516 32.5884 145.542 32.3652 145.54 32.1415V31.0822H146.112V32.1039C146.112 32.4271 146.073 32.7293 145.995 33.0104C145.931 33.271 145.812 33.5146 145.645 33.7244C145.48 33.9269 145.271 34.0886 145.034 34.197C144.791 34.3077 144.498 34.3631 144.151 34.3631C143.805 34.3631 143.506 34.3077 143.255 34.197C143.021 34.0842 142.812 33.9232 142.644 33.7244C142.484 33.5104 142.365 33.2682 142.293 33.0104C142.222 32.7131 142.188 32.4083 142.19 32.1028V27.5345C142.187 27.2333 142.222 26.9329 142.293 26.6401C142.372 26.3601 142.488 26.121 142.644 25.9261C142.809 25.7214 143.012 25.5642 143.255 25.4535C143.536 25.3276 143.842 25.2674 144.151 25.2753ZM151.971 34.2867V25.8874H150.113V25.3517H154.425V25.8874H152.568V34.2867H151.971ZM160.37 25.3517C161.07 25.3517 161.569 25.5509 161.863 25.9516C162.167 26.3423 162.318 26.8659 162.318 27.5212V28.492C162.318 29.2059 162.149 29.7384 161.811 30.0859C161.474 30.4357 160.941 30.6106 160.214 30.6106H159.083V34.2856H158.486V25.3517H160.37ZM160.214 30.0738C160.742 30.0738 161.123 29.9553 161.356 29.7162C161.599 29.4694 161.72 29.0742 161.72 28.5296V27.4825C161.72 26.9976 161.621 26.6113 161.422 26.3213C161.231 26.0324 160.881 25.8874 160.37 25.8874H159.083V30.0738H160.214ZM168.529 30.138L167.048 34.2867H166.399V25.3517H166.945V32.9971L167.997 30.0483L169.737 25.3517H170.452V34.2867H169.907V26.3855L168.529 30.138ZM175.526 32.3075L175.071 34.2867H174.525L176.513 25.3384H177.383L179.409 34.2867H178.812L178.357 32.3075H175.526ZM175.616 31.7984H178.266L176.929 26.0147L175.616 31.7984ZM185.299 25.8874L185.065 32.1039C185.051 32.3905 185.02 32.6761 184.975 32.9595C184.947 33.2013 184.872 33.4353 184.754 33.648C184.64 33.846 184.474 34.0093 184.274 34.1207C184.075 34.2314 183.806 34.2911 183.468 34.2989H183.351V33.7631C183.611 33.7631 183.811 33.7211 183.949 33.6358C184.089 33.5496 184.202 33.4257 184.274 33.2783C184.355 33.1145 184.403 32.9367 184.416 32.7547C184.443 32.5511 184.46 32.3374 184.468 32.116L184.741 25.3517H188.131V34.2867H187.52V25.8874H185.299ZM194.086 29.0277C194.821 29.0277 195.359 29.2015 195.697 29.5513C196.034 29.9 196.203 30.4313 196.203 31.1464V32.116C196.203 32.4404 196.164 32.7381 196.086 33.0104C196.023 33.2612 195.908 33.4959 195.748 33.6989C195.593 33.8871 195.389 34.031 195.138 34.1328C194.853 34.2428 194.548 34.2951 194.242 34.2867H192.371V25.3517H192.968V29.0266H194.086V29.0277ZM194.242 33.7498C194.753 33.7498 195.107 33.6059 195.307 33.3159C195.506 33.027 195.606 32.6407 195.606 32.1548V31.1076C195.606 30.563 195.484 30.1723 195.241 29.9343C195 29.6875 194.614 29.5635 194.086 29.5635H192.968V33.7498H194.242ZM200.958 30.0859V34.2867H200.361V25.3517H200.958V29.5513H203.79V25.3517H204.4V34.2867H203.79V30.0859H200.958ZM210.33 29.0277C211.067 29.0277 211.604 29.2015 211.942 29.5513C212.279 29.9 212.448 30.4313 212.448 31.1464V32.116C212.448 32.4404 212.41 32.7381 212.331 33.0104C212.268 33.261 212.153 33.4955 211.994 33.6989C211.838 33.8871 211.634 34.031 211.383 34.1328C211.098 34.2428 210.793 34.2951 210.487 34.2867H208.616V25.3517H209.214V29.0266H210.33V29.0277ZM213.902 25.3517V34.2867H213.305V25.3517H213.902ZM210.487 33.7498C210.998 33.7498 211.352 33.6059 211.552 33.3159C211.751 33.027 211.851 32.6407 211.851 32.1548V31.1076C211.851 30.563 211.729 30.1723 211.486 29.9343C211.245 29.6875 210.859 29.5635 210.33 29.5635H209.214V33.7498H210.487ZM221.531 23.6924C221.522 24.0411 221.396 24.3089 221.154 24.496C220.912 24.6842 220.6 24.7772 220.219 24.7772C219.847 24.7772 219.539 24.6831 219.296 24.496C219.055 24.3089 218.928 24.0411 218.921 23.6924H219.336C219.344 23.947 219.435 24.1296 219.609 24.2403C219.792 24.3538 220.004 24.4115 220.219 24.4063C220.461 24.4063 220.669 24.351 220.842 24.2403C221.015 24.1296 221.111 23.947 221.128 23.6924H221.531ZM218.778 34.2856H218.128V25.3517H218.673V32.9971L219.816 29.8192L221.466 25.3517H222.18V34.2867H221.635V26.3855L218.778 34.2856ZM233.413 25.8354C233.18 25.8354 232.984 25.8708 232.829 25.9383C232.682 25.999 232.556 26.1009 232.466 26.2317C232.373 26.3747 232.311 26.5357 232.284 26.7043C232.247 26.9066 232.229 27.1119 232.232 27.3175V32.3075C232.232 32.5378 232.249 32.7459 232.284 32.9329C232.318 33.1123 232.378 33.265 232.466 33.3934C232.553 33.5218 232.674 33.6233 232.816 33.6868C232.972 33.7543 233.171 33.7886 233.413 33.7886H233.674V34.2867H233.388C233.101 34.2946 232.815 34.2511 232.543 34.1583C232.331 34.0743 232.144 33.9384 231.998 33.7631C231.862 33.5803 231.765 33.3716 231.712 33.1499C231.657 32.8729 231.631 32.591 231.635 32.3086V27.3164C231.635 27.0021 231.66 26.7253 231.712 26.4874C231.763 26.2613 231.86 26.0484 231.998 25.8619C232.142 25.6874 232.33 25.5551 232.543 25.479C232.768 25.3849 233.05 25.3384 233.388 25.3384H233.674V25.8365L233.413 25.8354ZM236.173 25.8874V34.2867H235.576V25.3517H239.615V34.2867H239.005V25.8874H236.173ZM245.714 25.3517C246.415 25.3517 246.913 25.5509 247.208 25.9516C247.512 26.3423 247.662 26.8659 247.662 27.5212V28.492C247.662 29.2059 247.494 29.7384 247.156 30.0859C246.818 30.4357 246.286 30.6106 245.559 30.6106H244.428V34.2856H243.831V25.3517H245.714ZM245.559 30.0738C246.086 30.0738 246.468 29.9553 246.701 29.7162C246.944 29.4694 247.065 29.0742 247.065 28.5296V27.4825C247.065 26.9976 246.965 26.6113 246.767 26.3213C246.576 26.0324 246.225 25.8874 245.714 25.8874H244.428V30.0738H245.559ZM251.705 27.5345C251.705 27.2102 251.744 26.9124 251.823 26.6401C251.9 26.3601 252.017 26.121 252.173 25.9261C252.339 25.7204 252.553 25.5582 252.796 25.4535C253.047 25.3339 253.347 25.2742 253.692 25.2742C254.039 25.2742 254.337 25.3339 254.589 25.4535C254.848 25.5642 255.061 25.7214 255.225 25.9261C255.389 26.121 255.511 26.3601 255.589 26.6401C255.666 26.9124 255.706 27.2102 255.706 27.5345V32.1039C255.706 32.4271 255.666 32.7293 255.589 33.0104C255.511 33.2827 255.389 33.5196 255.225 33.7244C255.061 33.9203 254.848 34.0786 254.589 34.197C254.337 34.3077 254.039 34.3631 253.692 34.3631C253.347 34.3631 253.047 34.3077 252.796 34.197C252.556 34.0865 252.344 33.9252 252.173 33.7244C252.012 33.5106 251.893 33.2684 251.823 33.0104C251.742 32.7147 251.703 32.4093 251.705 32.1028V27.5345ZM252.303 32.1426C252.303 32.6274 252.407 33.0315 252.614 33.3547C252.831 33.669 253.19 33.8273 253.692 33.8273C254.194 33.8273 254.555 33.669 254.771 33.3547C254.996 33.0315 255.109 32.6274 255.109 32.1426V27.4958C255.109 27.0109 254.996 26.6102 254.771 26.2959C254.555 25.9726 254.194 25.811 253.692 25.811C253.19 25.811 252.831 25.9726 252.614 26.2959C252.407 26.6113 252.303 27.0109 252.303 27.4958V32.1426ZM262.925 34.2734H262.328L260.405 26.3722V34.2867H259.873V25.3517H260.73L262.639 33.2528L264.536 25.3517H265.393V34.2867H264.821V26.3468L262.925 34.2734ZM271.327 29.0277C272.063 29.0277 272.6 29.2015 272.937 29.5513C273.275 29.9 273.444 30.4313 273.444 31.1464V32.116C273.444 32.4404 273.405 32.7381 273.327 33.0104C273.265 33.2612 273.149 33.4959 272.989 33.6989C272.834 33.8871 272.63 34.031 272.379 34.1328C272.093 34.243 271.789 34.2953 271.483 34.2867H269.613V25.3517H270.21V29.0266H271.327V29.0277ZM274.899 25.3517V34.2867H274.302V25.3517H274.899ZM271.483 33.7498C271.994 33.7498 272.349 33.6059 272.548 33.3159C272.748 33.027 272.846 32.6407 272.846 32.1548V31.1076C272.846 30.563 272.726 30.1723 272.483 29.9343C272.24 29.6875 271.856 29.5635 271.327 29.5635H270.21V33.7498H271.483ZM279.722 25.3517V33.7498H281.969V25.3517H282.566V33.7498H284.813V25.3517H285.411V34.2867H279.124V25.3517H279.722ZM291.443 25.8874L291.209 32.1039C291.194 32.3905 291.163 32.6761 291.118 32.9595C291.091 33.2012 291.016 33.4351 290.898 33.648C290.783 33.846 290.617 34.0093 290.417 34.1207C290.217 34.2314 289.949 34.2911 289.611 34.2989H289.495V33.7631C289.754 33.7631 289.954 33.7211 290.092 33.6358C290.232 33.5503 290.345 33.4261 290.417 33.2783C290.497 33.1144 290.546 32.9367 290.56 32.7547C290.585 32.5511 290.603 32.3374 290.612 32.116L290.885 25.3517H294.275V34.2867H293.664V25.8874H291.443ZM301.593 29.4871V30.0229H299.112V33.7498H302.099V34.2867H298.515V25.3517H302.099V25.8874H299.112V29.4871H301.593ZM306.848 30.0859V34.2867H306.251V25.3517H306.848V29.5513H309.68V25.3517H310.29V34.2867H309.68V30.0859H306.848ZM315.103 30.0859V34.2867H314.506V25.3517H315.103V29.5513H317.935V25.3517H318.546V34.2867H317.935V30.0859H315.103ZM324.476 29.0277C325.212 29.0277 325.749 29.2015 326.087 29.5513C326.424 29.9 326.594 30.4313 326.594 31.1464V32.116C326.594 32.4404 326.554 32.7381 326.476 33.0104C326.414 33.2612 326.298 33.4959 326.138 33.6989C325.983 33.8871 325.779 34.031 325.529 34.1328C325.243 34.2428 324.938 34.2951 324.632 34.2867H322.761V25.3517H323.359V29.0266H324.476V29.0277ZM328.048 25.3517V34.2867H327.45V25.3517H328.048ZM324.632 33.7498C325.143 33.7498 325.498 33.6059 325.697 33.3159C325.897 33.027 325.995 32.6407 325.995 32.1548V31.1076C325.995 30.563 325.875 30.1723 325.632 29.9343C325.39 29.6875 325.005 29.5635 324.476 29.5635H323.359V33.7498H324.632ZM335.676 23.6924C335.667 24.0411 335.542 24.3089 335.299 24.496C335.056 24.6842 334.745 24.7772 334.364 24.7772C333.991 24.7772 333.684 24.6831 333.442 24.496C333.2 24.3089 333.074 24.0411 333.065 23.6924H333.481C333.489 23.947 333.58 24.1296 333.754 24.2403C333.927 24.351 334.13 24.4063 334.364 24.4063C334.607 24.4063 334.815 24.351 334.988 24.2403C335.161 24.1296 335.256 23.947 335.274 23.6924H335.676ZM332.923 34.2856H332.274V25.3517H332.819V32.9971L333.962 29.8192L335.611 25.3517H336.325V34.2867H335.78V26.3855L332.923 34.2856ZM338.502 25.3384C339.178 25.3384 339.641 25.5133 339.892 25.8619C340.143 26.2029 340.269 26.6877 340.269 27.3175V32.3075C340.269 32.623 340.239 32.9031 340.178 33.1499C340.126 33.389 340.03 33.5927 339.892 33.7631C339.75 33.9423 339.561 34.0789 339.347 34.1583C339.075 34.2511 338.789 34.2946 338.502 34.2867H338.216V33.7886H338.477C338.953 33.7886 339.269 33.6558 339.424 33.3934C339.589 33.1289 339.671 32.7669 339.671 32.3086V27.3164C339.671 26.8659 339.589 26.5084 339.424 26.2449C339.269 25.9726 338.953 25.8354 338.477 25.8354H338.216V25.3384H338.502Z" fill="white" stroke="white" stroke-width="2" mask="url(#path-1-inside-1_33_444)"/>
<path fill-rule="evenodd" clip-rule="evenodd" d="M61.2905 76.8619L56.5848 76.6648C53.4307 78.2012 51.4425 79.7575 49.0364 81.2696L54.1843 81.5175L51.939 83.3008L46.3644 83.0263C43.3499 85.104 41.016 87.0521 39.2538 88.7092L47.1989 89.09L45.3869 91.6159L36.8777 91.1178C35.3339 92.8181 34.6834 93.8552 34.6834 93.8552L30.0508 93.8375C30.8605 92.8199 31.7028 91.8287 32.5766 90.8655L11.0541 89.6058C7.20737 92.124 5.30893 93.7446 5.30893 93.7446L1.30811 93.7291C2.93144 92.1846 4.62674 90.7174 6.38837 89.3324L0.0712891 89.3091L3.81056 87.2436L9.13796 87.2635C12.0168 85.2037 15.015 83.3157 18.1171 81.6094L12.1945 81.6127L15.9316 79.9059L21.2911 79.9258C39.5242 70.6565 62.0452 65.7539 83.7305 63.3386L90.4466 62.5859L96.3979 63.3862C93.8312 63.9021 80.4589 67.6058 78.1116 68.1903L80.1686 68.3629L77.2062 69.4898L74.5042 69.3525C71.7945 70.1097 71.0099 70.5889 68.605 71.4147L71.6194 71.583L69.2987 72.712L66.1014 72.3988C63.5602 73.3385 61.7127 74.3093 59.5183 75.2934L63.8727 75.4771L61.2905 76.8619ZM14.3756 87.5148C17.1385 85.8434 20.5375 83.9373 24.5838 81.9337L41.4338 82.7794C39.1118 84.5377 36.9089 86.4476 34.8396 88.4967L14.3756 87.5148ZM43.8575 81.0172L28.0814 80.2545C31.1059 78.8488 34.9527 77.0866 38.59 75.6653L51.2906 76.4556C48.7301 77.8376 46.2485 79.3597 43.8575 81.0172ZM77.7082 65.0278C80.0411 64.6138 87.3889 63.5755 89.8381 63.2158L92.4093 63.4781C90.164 63.8301 85.9537 64.9027 83.7227 65.3444L77.7082 65.0278ZM74.0399 65.7108L80.7493 65.9642C78.5571 66.4435 76.3783 66.9715 74.2216 67.5505L67.0202 67.1874C69.2954 66.6705 71.635 66.1768 74.0388 65.7108H74.0399ZM63.1468 68.1028C59.586 68.6651 58.041 69.1655 54.8215 69.9104L64.7238 70.7074C67.2141 69.7665 68.0198 69.3536 70.5976 68.5799L63.1468 68.1028ZM52.3745 70.9133L61.3104 71.832C58.9997 72.7651 57.1855 73.4758 54.9811 74.5727L42.4046 73.8887C45.336 72.8127 49.0808 71.9372 52.3745 70.9133Z" fill="url(#paint0_linear_33_444)"/>
<path d="M25.9189 41.0555L33.6058 32.3916V73.9974C31.0164 74.9824 28.4532 76.0351 25.9189 77.1543V41.0555Z" fill="url(#paint1_linear_33_444)"/>
<path d="M34.9438 30.6306L42.6307 21.5605V70.8803C39.6152 71.8002 37.9317 72.3935 34.9438 73.4927V30.6306Z" fill="url(#paint2_linear_33_444)"/>
<path d="M51.6893 9.50843L44.1055 0V70.4376C47.0557 69.5543 48.7136 69.0828 51.6893 68.3367V9.50843Z" fill="url(#paint3_linear_33_444)"/>
<path d="M60.7904 20.1418L53.2065 10.6621V67.9562C56.1689 67.2743 57.8291 66.9101 60.7904 66.3102V20.1418Z" fill="url(#paint4_linear_33_444)"/>
<path d="M70.0888 31.1206L62.3398 21.7041V66.0162C65.3698 65.4683 67.0666 65.1882 70.0888 64.7455V31.1206Z" fill="url(#paint5_linear_33_444)"/>
</g>
<defs>
<linearGradient id="paint0_linear_33_444" x1="78.873" y1="60.899" x2="78.7481" y2="94.0213" gradientUnits="userSpaceOnUse">
<stop stop-color="white"/>
<stop offset="1" stop-color="white"/>
</linearGradient>
<linearGradient id="paint1_linear_33_444" x1="31.5611" y1="38.0635" x2="31.5611" y2="72.1765" gradientUnits="userSpaceOnUse">
<stop offset="0.077" stop-color="white"/>
<stop offset="1" stop-color="white"/>
</linearGradient>
<linearGradient id="paint2_linear_33_444" x1="31.5614" y1="38.0636" x2="31.5614" y2="72.1765" gradientUnits="userSpaceOnUse">
<stop offset="0.077" stop-color="white"/>
<stop offset="1" stop-color="white"/>
</linearGradient>
<linearGradient id="paint3_linear_33_444" x1="63.3139" y1="27.2092" x2="63.3139" y2="75.0834" gradientUnits="userSpaceOnUse">
<stop stop-color="#00ECFF"/>
<stop offset="0.349" stop-color="#08E0F1"/>
<stop offset="1" stop-color="#019AAA"/>
</linearGradient>
<linearGradient id="paint4_linear_33_444" x1="63.3139" y1="27.2094" x2="63.3139" y2="75.0836" gradientUnits="userSpaceOnUse">
<stop stop-color="#00ECFF"/>
<stop offset="0.349" stop-color="#08E0F1"/>
<stop offset="1" stop-color="#019AAA"/>
</linearGradient>
<linearGradient id="paint5_linear_33_444" x1="63.314" y1="27.2088" x2="63.314" y2="75.0829" gradientUnits="userSpaceOnUse">
<stop stop-color="#00ECFF"/>
<stop offset="0.349" stop-color="#08E0F1"/>
<stop offset="1" stop-color="#019AAA"/>
</linearGradient>
<clipPath id="clip0_33_444">
<rect width="340.236" height="94.0881" fill="white" transform="translate(0.0556641)"/>
</clipPath>
</defs>
</svg>
