<svg width="300" height="83" viewBox="0 0 300 83" fill="none" xmlns="http://www.w3.org/2000/svg">
<g clip-path="url(#clip0_33_945)">
<path d="M94.623 61.7989V39.5842H104.936V61.7989H101.699V42.3925H97.8595V61.7989H94.623ZM116.895 54.0301L115.309 45.982H115.246L113.659 54.031L116.895 54.0301ZM108.899 61.7989L113.944 39.5842H116.642L121.688 61.7989H118.451L117.498 57.0259H113.088L112.136 61.7989H108.899ZM125.661 61.7989V39.5842H130.516C131.405 39.5842 132.188 39.6994 132.864 39.9279C133.541 40.1564 134.155 40.5626 134.705 41.1446C135.253 41.7243 135.646 42.433 135.847 43.2049C136.058 43.9734 136.164 45.0241 136.164 46.355C136.164 47.3539 136.101 48.1957 135.974 48.8821C135.867 49.5703 135.618 50.2289 135.244 50.8165C134.811 51.5336 134.199 52.1253 133.467 52.5331C132.727 52.9276 131.754 53.1259 130.548 53.1259H128.897V61.7989H125.661ZM128.897 42.58V50.13H130.452C131.109 50.13 131.616 50.0363 131.975 49.8498C132.335 49.6623 132.6 49.4026 132.769 49.0686C132.938 48.7571 133.034 48.3724 133.054 47.9154C133.096 47.4574 133.118 46.9487 133.118 46.3863C133.118 45.8668 133.107 45.3776 133.087 44.9196C133.065 44.4411 132.97 44.0252 132.8 43.6717C132.639 43.3274 132.373 43.0434 132.039 42.8612C131.701 42.6737 131.214 42.58 130.579 42.58H128.897ZM152.259 42.58C151.963 42.58 151.72 42.622 151.529 42.705C151.32 42.7807 151.134 42.9096 150.99 43.079C150.817 43.2741 150.697 43.5105 150.641 43.7654C150.572 44.0642 150.52 44.3663 150.483 44.6706L150.197 47.2602C150.179 47.5114 150.147 47.7614 150.102 48.0092C150.06 48.2171 150.018 48.4349 149.975 48.6634C149.937 48.8587 149.873 49.0479 149.784 49.2258C149.664 49.5073 149.503 49.7701 149.308 50.006C149.16 50.1925 148.99 50.3599 148.801 50.504L152.164 61.7989H148.864L146.008 51.9092H144.199V61.7989H140.963V39.5842H144.199V49.1008H145.278C145.659 49.1008 145.966 49.0491 146.199 48.9446C146.422 48.8478 146.618 48.6979 146.77 48.5081C146.917 48.3232 147.024 48.1106 147.087 47.8832C147.154 47.6159 147.207 47.3454 147.246 47.0727L147.563 44.4206C147.584 44.3376 147.606 44.1716 147.626 43.9216C147.669 43.6512 147.733 43.3494 147.817 43.0165C147.908 42.6654 148.025 42.3214 148.166 41.9873C148.314 41.6338 148.505 41.3008 148.737 40.9883C149.116 40.5061 149.621 40.1388 150.197 39.9279C150.789 39.6994 151.476 39.5851 152.259 39.5851V42.58ZM164.75 61.7989V39.5842H169.604C170.493 39.5842 171.275 39.6994 171.953 39.9279C172.63 40.1564 173.244 40.5626 173.793 41.1446C174.341 41.724 174.734 42.4328 174.935 43.2049C175.147 43.9734 175.253 45.0241 175.253 46.355C175.253 47.3539 175.189 48.1957 175.062 48.8821C174.956 49.5706 174.707 50.2293 174.332 50.8165C173.9 51.5338 173.288 52.1256 172.556 52.5331C171.815 52.9276 170.842 53.1259 169.637 53.1259H167.986V61.7989H164.75ZM167.986 42.58V50.13H169.541C170.197 50.13 170.705 50.0363 171.064 49.8498C171.405 49.6805 171.683 49.4068 171.858 49.0686C172.027 48.7571 172.122 48.3724 172.143 47.9154C172.185 47.4574 172.207 46.9487 172.207 46.3863C172.207 45.8668 172.196 45.3776 172.175 44.9196C172.154 44.4411 172.058 44.0252 171.889 43.6717C171.728 43.3274 171.462 43.0434 171.128 42.8612C170.789 42.6737 170.302 42.58 169.668 42.58H167.986ZM185.636 42.58C184.494 42.58 183.743 42.8817 183.383 43.4852C183.045 44.0671 182.876 44.9206 182.876 46.0435C182.876 46.605 182.907 47.104 182.971 47.5404C183.034 47.9564 183.15 48.3099 183.319 48.6019C183.51 48.8929 183.775 49.1214 184.113 49.2883C184.452 49.4338 184.906 49.5061 185.478 49.5061H187.033V42.58H185.636ZM187.033 61.7989V52.3144H185.542L182.718 61.7989H179.417L182.495 51.9092C181.995 51.7268 181.541 51.4395 181.162 51.0665C180.784 50.6959 180.473 50.2632 180.242 49.7873C180.01 49.3088 179.85 48.7474 179.766 48.1019C179.681 47.4574 179.639 46.7915 179.639 46.106C179.639 41.7588 181.543 39.5851 185.351 39.5851H190.269V61.7998H187.033V61.7989ZM195.282 45.2008C195.282 44.5759 195.408 43.8699 195.662 43.079C195.919 42.3193 196.342 41.6264 196.901 41.0508C197.386 40.5731 197.942 40.1733 198.55 39.8654C199.164 39.5529 199.872 39.3977 200.676 39.3977C201.628 39.3977 202.443 39.5637 203.119 39.8966C203.818 40.2091 204.389 40.6348 204.833 41.1758C205.31 41.7383 205.657 42.3987 205.849 43.1102C206.06 43.8591 206.166 44.6491 206.166 45.4811C206.166 45.898 206.156 46.3238 206.134 46.7602C206.109 47.1963 206.023 47.6268 205.88 48.0394C205.753 48.4564 205.531 48.8509 205.214 49.2258C204.918 49.5998 204.485 49.9435 203.913 50.255C204.485 50.4835 204.918 50.7853 205.214 51.1602C205.531 51.5137 205.753 51.9189 205.88 52.3769C206.029 52.8134 206.113 53.3026 206.134 53.8436C206.156 54.363 206.166 54.904 206.166 55.4655C206.166 56.4019 206.06 57.2749 205.849 58.0863C205.658 58.8968 205.331 59.5735 204.865 60.1145C204.4 60.6544 203.807 61.1017 203.088 61.4561C202.389 61.8096 201.523 61.9864 200.486 61.9864C199.737 61.9924 198.993 61.8545 198.296 61.5801C197.645 61.3263 197.051 60.9444 196.551 60.4572C196.065 59.9787 195.695 59.3655 195.441 58.6166C195.191 57.8939 195.062 57.1351 195.06 56.3707V55.528H198.296L198.328 56.4019C198.328 56.6929 198.36 56.9839 198.423 57.2749C198.508 57.5454 198.635 57.7953 198.804 58.0238C198.973 58.2523 199.196 58.4398 199.471 58.5853C199.745 58.7318 200.095 58.804 200.518 58.804C201.47 58.804 202.104 58.513 202.422 57.9301C202.76 57.3266 202.929 56.5162 202.929 55.4967C202.929 54.9138 202.908 54.3738 202.865 53.8738C202.823 53.3544 202.718 52.9491 202.549 52.6572C202.168 52.0127 201.533 51.6904 200.644 51.6904H199.407V48.8821H200.74C201.111 48.8885 201.479 48.8142 201.819 48.6644C202.136 48.5179 202.389 48.2689 202.58 47.9154C202.749 47.5824 202.845 47.187 202.865 46.73C202.908 46.272 202.929 45.8668 202.929 45.5123C202.929 45.1383 202.898 44.7741 202.834 44.4206C202.782 44.0787 202.664 43.7502 202.485 43.4539C202.305 43.1937 202.065 42.9797 201.787 42.829C201.512 42.663 201.152 42.58 200.708 42.58C200.306 42.58 199.968 42.6532 199.692 42.7987C199.438 42.9442 199.227 43.1307 199.058 43.3602C198.868 43.6092 198.73 43.9324 198.646 44.3269C198.561 44.7224 198.519 45.1081 198.519 45.4811V45.981H195.282V45.2008ZM217.533 54.0301L215.946 45.981H215.884L214.297 54.0301H217.533ZM209.537 61.7989L214.582 39.5842H217.279L222.324 61.7989H219.088L218.136 57.0259H213.725L212.773 61.7989H209.537ZM226.299 61.7989V39.5842H229.535V49.1008H233.534V39.5851H236.77V61.7998H233.534V51.9082H229.535V61.7998H226.299V61.7989ZM252.47 55.4655V56.8384C252.47 57.5249 252.333 58.1801 252.058 58.804C251.804 59.408 251.438 59.9583 250.979 60.426C250.505 60.9098 249.946 61.3012 249.329 61.5801C248.699 61.8542 248.017 61.9926 247.33 61.9864C246.698 61.9837 246.068 61.8997 245.458 61.7364C244.83 61.5736 244.245 61.2756 243.745 60.8634C243.218 60.4243 242.786 59.8828 242.475 59.2718C242.158 58.6058 241.999 57.7641 241.999 56.7447V44.5144C241.999 43.7869 242.125 43.1102 242.379 42.4862C242.624 41.8773 242.991 41.3251 243.458 40.8643C243.931 40.4022 244.492 40.041 245.109 39.8029C245.794 39.5269 246.527 39.3892 247.266 39.3977C248.79 39.3977 250.027 39.8859 250.979 40.8643C251.445 41.3428 251.804 41.914 252.058 42.58C252.333 43.2244 252.47 43.9324 252.47 44.7018V45.9498H249.233V44.8884C249.233 44.2644 249.054 43.7244 248.694 43.2664C248.334 42.8085 247.848 42.58 247.235 42.58C246.431 42.58 245.891 42.83 245.616 43.3289C245.363 43.8074 245.236 44.4206 245.236 45.1696V56.5259C245.236 57.1704 245.373 57.7123 245.648 58.1488C245.944 58.5853 246.462 58.8031 247.203 58.8031C247.415 58.8031 247.637 58.7728 247.869 58.7103C248.123 58.6273 248.356 58.5023 248.567 58.3363C248.758 58.1703 248.917 57.9408 249.043 57.6498C249.17 57.3579 249.233 56.9946 249.233 56.5572V55.4655H252.47ZM268.788 42.58C268.492 42.58 268.249 42.622 268.058 42.705C267.849 42.7802 267.663 42.9092 267.519 43.079C267.345 43.2739 267.225 43.5104 267.17 43.7654C267.106 44.0359 267.053 44.3376 267.011 44.6706L266.725 47.2602C266.706 47.5113 266.675 47.7613 266.631 48.0092C266.588 48.2171 266.546 48.4349 266.503 48.6634C266.465 48.8584 266.401 49.0476 266.313 49.2258C266.186 49.5168 266.028 49.7766 265.837 50.006C265.689 50.1926 265.518 50.3599 265.329 50.504L268.692 61.7989H265.392L262.537 51.9092H260.728V61.7989H257.491V39.5842H260.728V49.1008H261.807C262.187 49.1008 262.494 49.0491 262.727 48.9446C262.96 48.8411 263.15 48.6946 263.298 48.5081C263.446 48.3206 263.552 48.1127 263.616 47.8832C263.683 47.616 263.736 47.3455 263.774 47.0727L264.092 44.4206C264.123 44.2558 264.145 44.0891 264.155 43.9216C264.197 43.6512 264.261 43.3494 264.345 43.0165C264.43 42.6845 264.546 42.3407 264.695 41.9873C264.842 41.6338 265.033 41.3008 265.265 40.9883C265.644 40.5063 266.15 40.1391 266.725 39.9279C267.318 39.6994 268.005 39.5851 268.788 39.5851V42.58ZM280.562 61.7989V47.3852H280.499L276.247 61.7989H273.01V39.5842H276.247V54.0301H276.311L280.562 39.5851H283.799V61.7998H280.562V61.7989ZM296.763 61.7989V47.3852H296.7L292.447 61.7989H289.211V39.5842H292.447V54.0301H292.511L296.763 39.5851H300V61.7998H296.763V61.7989ZM292.892 35.1236C292.913 35.2477 292.934 35.4039 292.955 35.5914C292.977 35.7574 293.039 35.9341 293.146 36.1216C293.273 36.2876 293.442 36.4341 293.653 36.5581C293.886 36.6831 294.203 36.7456 294.605 36.7456C295.007 36.7456 295.314 36.6831 295.525 36.5581C295.758 36.4341 295.927 36.2886 296.033 36.1216C296.161 35.9341 296.234 35.7574 296.255 35.5914C296.272 35.4346 296.293 35.2783 296.319 35.1227H299.016C298.868 36.3716 298.445 37.2865 297.747 37.8685C297.069 38.4515 296.023 38.7424 294.605 38.7424C293.188 38.7424 292.131 38.4515 291.432 37.8685C290.755 37.2865 290.342 36.3716 290.195 35.1236H292.892ZM96.5882 26.5864L95.2827 30.2462H94.71V22.3641H95.1908V29.1086L96.1191 26.5073L97.6533 22.3641H98.2827V30.2462H97.8019V23.2761L96.5882 26.5864ZM102.516 26.5405V30.2462H101.989V22.3641H102.516V26.0688H105.013V22.3641H105.551V30.2462H105.013V26.5405H102.516ZM113.506 31.3379V30.2462H109.681V31.3379H109.166V29.7726H109.715C109.875 29.6076 109.979 29.4211 110.025 29.2101C110.071 29.0002 110.101 28.7668 110.117 28.512L110.437 22.3641H113.369V29.7726H114.033V31.3379H113.506ZM110.632 28.512C110.62 28.7542 110.589 28.9951 110.54 29.2326C110.5 29.4371 110.401 29.6252 110.253 29.7726H112.83V22.8367H110.93L110.632 28.512ZM119.705 28.7824C119.636 29.0227 119.559 29.2365 119.475 29.424C119.403 29.5991 119.293 29.7567 119.155 29.8859C119.015 30.0197 118.846 30.1199 118.662 30.1788C118.428 30.2433 118.183 30.2661 117.941 30.2462V29.7843C118.307 29.7921 118.571 29.7208 118.732 29.5695C118.9 29.4132 119.032 29.176 119.132 28.8606L119.464 27.9036L117.54 22.3641H118.079L119.018 25.1451L119.717 27.2504L120.358 25.1334L121.228 22.3641H121.777L119.705 28.7824ZM127.054 22.2967C127.36 22.2967 127.619 22.3485 127.833 22.4539C128.055 22.5516 128.234 22.6902 128.372 22.8709C128.516 23.0428 128.62 23.2537 128.68 23.5007C128.75 23.7409 128.784 24.0036 128.784 24.2897V24.942H128.28V24.2555C128.28 24.0456 128.257 23.8503 128.211 23.6696C128.177 23.4991 128.107 23.3379 128.005 23.197C127.907 23.0628 127.777 22.9545 127.627 22.8816C127.451 22.8017 127.259 22.7633 127.066 22.7693C126.844 22.7693 126.658 22.8064 126.505 22.8816C126.355 22.9543 126.225 23.0626 126.127 23.197C126.024 23.3389 125.95 23.4995 125.909 23.6696C125.87 23.8624 125.851 24.0588 125.852 24.2555V28.3548C125.852 28.5647 125.871 28.76 125.909 28.9406C125.955 29.1203 126.027 29.2775 126.127 29.4123C126.227 29.5402 126.352 29.6417 126.505 29.7169C126.658 29.7921 126.844 29.8292 127.066 29.8292C127.288 29.8292 127.475 29.7921 127.627 29.7169C127.775 29.6455 127.904 29.5413 128.005 29.4123C128.105 29.2775 128.173 29.1193 128.211 28.9397C128.259 28.748 128.281 28.5512 128.28 28.3538V27.4193H128.784V28.3206C128.784 28.6057 128.75 28.8723 128.68 29.1203C128.624 29.3501 128.519 29.565 128.372 29.7501C128.227 29.9287 128.042 30.0714 127.833 30.1671C127.619 30.2647 127.36 30.3136 127.054 30.3136C126.749 30.3136 126.486 30.2647 126.265 30.1671C126.058 30.0676 125.874 29.9255 125.726 29.7501C125.585 29.5614 125.48 29.3477 125.417 29.1203C125.354 28.858 125.324 28.5892 125.326 28.3196V24.2897C125.323 24.024 125.354 23.759 125.417 23.5007C125.486 23.2537 125.589 23.0428 125.726 22.8709C125.871 22.6902 126.051 22.5516 126.265 22.4539C126.513 22.3429 126.783 22.2898 127.054 22.2967ZM133.949 30.2462V22.8367H132.312V22.3641H136.114V22.8367H134.476V30.2462H133.949ZM141.356 22.3641C141.973 22.3641 142.413 22.5399 142.672 22.8934C142.94 23.238 143.074 23.6999 143.074 24.278V25.1344C143.074 25.7642 142.924 26.2339 142.626 26.5405C142.329 26.849 141.859 27.0033 141.218 27.0033H140.221V30.2452H139.694V22.3641H141.356ZM141.218 26.5297C141.684 26.5297 142.019 26.4252 142.225 26.2143C142.439 25.9966 142.546 25.648 142.546 25.1676V24.2438C142.546 23.8161 142.459 23.4753 142.283 23.2195C142.115 22.9646 141.806 22.8367 141.356 22.8367H140.221V26.5297H141.218ZM148.55 26.5864L147.244 30.2462H146.672V22.3641H147.153V29.1086L148.081 26.5073L149.615 22.3641H150.245V30.2462H149.764V23.2761L148.55 26.5864ZM154.719 28.5002L154.318 30.2462H153.836L155.589 22.3524H156.357L158.143 30.2462H157.616L157.216 28.5002H154.719ZM154.799 28.0511H157.135L155.956 22.949L154.799 28.0511ZM163.337 22.8367L163.131 28.3206C163.117 28.5734 163.091 28.8254 163.05 29.0754C163.026 29.2887 162.96 29.4951 162.856 29.6828C162.755 29.8574 162.609 30.0015 162.433 30.0997C162.257 30.1974 162.02 30.2501 161.722 30.2569H161.619V29.7843C161.848 29.7843 162.024 29.7472 162.146 29.672C162.27 29.596 162.369 29.4866 162.433 29.3566C162.504 29.2121 162.546 29.0553 162.558 28.8947C162.581 28.7151 162.597 28.5266 162.604 28.3313L162.844 22.3641H165.833V30.2462H165.295V22.8367H163.337ZM171.084 25.607C171.733 25.607 172.207 25.7603 172.505 26.0688C172.802 26.3764 172.951 26.8451 172.951 27.4759V28.3313C172.951 28.6174 172.916 28.8801 172.848 29.1203C172.792 29.3415 172.691 29.5485 172.55 29.7277C172.413 29.8937 172.233 30.0206 172.012 30.1104C171.76 30.2075 171.492 30.2536 171.222 30.2462H169.572V22.3641H170.099V25.606H171.084V25.607ZM171.222 29.7726C171.672 29.7726 171.985 29.6456 172.161 29.3898C172.337 29.135 172.425 28.7942 172.425 28.3655V27.4418C172.425 26.9613 172.317 26.6166 172.103 26.4067C171.89 26.1889 171.55 26.0796 171.084 26.0796H170.099V29.7726H171.222ZM177.144 26.5405V30.2462H176.617V22.3641H177.144V26.0688H179.64V22.3641H180.179V30.2462H179.64V26.5405H177.144ZM185.408 25.607C186.058 25.607 186.531 25.7603 186.829 26.0688C187.126 26.3764 187.275 26.8451 187.275 27.4759V28.3313C187.275 28.6174 187.241 28.8801 187.172 29.1203C187.116 29.3413 187.015 29.5482 186.875 29.7277C186.737 29.8937 186.557 30.0206 186.336 30.1104C186.084 30.2075 185.815 30.2536 185.546 30.2462H183.896V22.3641H184.424V25.606H185.408V25.607ZM188.557 22.3641V30.2462H188.031V22.3641H188.557ZM185.546 29.7726C185.996 29.7726 186.309 29.6456 186.485 29.3898C186.66 29.135 186.748 28.7942 186.748 28.3655V27.4418C186.748 26.9613 186.641 26.6166 186.427 26.4067C186.214 26.1889 185.874 26.0796 185.408 26.0796H184.424V29.7726H185.546ZM195.283 20.9004C195.275 21.208 195.165 21.4443 194.951 21.6093C194.738 21.7753 194.462 21.8573 194.127 21.8573C193.799 21.8573 193.527 21.7743 193.313 21.6093C193.1 21.4443 192.989 21.208 192.982 20.9004H193.348C193.355 21.125 193.435 21.2861 193.589 21.3837C193.75 21.4838 193.937 21.5347 194.127 21.5302C194.34 21.5302 194.524 21.4814 194.676 21.3837C194.829 21.2861 194.913 21.125 194.929 20.9004H195.283ZM192.856 30.2452H192.283V22.3641H192.764V29.1086L193.772 26.3051L195.227 22.3641H195.856V30.2462H195.375V23.2761L192.856 30.2452ZM205.761 22.7908C205.555 22.7908 205.383 22.8221 205.246 22.8816C205.116 22.9351 205.005 23.025 204.925 23.1404C204.843 23.2666 204.789 23.4086 204.765 23.5574C204.732 23.7358 204.717 23.9169 204.719 24.0983V28.5002C204.719 28.7034 204.734 28.8869 204.765 29.052C204.795 29.2101 204.848 29.3449 204.925 29.4582C205.002 29.5714 205.109 29.661 205.234 29.7169C205.372 29.7765 205.547 29.8068 205.761 29.8068H205.99V30.2462H205.738C205.485 30.2531 205.233 30.2148 204.994 30.1329C204.807 30.0588 204.641 29.9389 204.513 29.7843C204.393 29.623 204.307 29.4389 204.261 29.2433C204.213 28.999 204.19 28.7503 204.192 28.5012V24.0973C204.192 23.82 204.215 23.5759 204.261 23.366C204.306 23.1666 204.392 22.9787 204.513 22.8143C204.64 22.6603 204.806 22.5435 204.994 22.4764C205.192 22.3934 205.44 22.3524 205.738 22.3524H205.99V22.7918L205.761 22.7908ZM208.194 22.8367V30.2462H207.667V22.3641H211.229V30.2462H210.691V22.8367H208.194ZM216.607 22.3641C217.225 22.3641 217.664 22.5399 217.924 22.8934C218.192 23.238 218.325 23.6999 218.325 24.278V25.1344C218.325 25.7642 218.176 26.2339 217.878 26.5405C217.58 26.849 217.111 27.0033 216.47 27.0033H215.473V30.2452H214.947V22.3641H216.607ZM216.47 26.5297C216.935 26.5297 217.271 26.4252 217.477 26.2143C217.691 25.9966 217.798 25.648 217.798 25.1676V24.2438C217.798 23.8161 217.71 23.4753 217.535 23.2195C217.367 22.9646 217.057 22.8367 216.607 22.8367H215.473V26.5297H216.47ZM221.889 24.2897C221.889 24.0036 221.924 23.7409 221.993 23.5007C222.061 23.2537 222.164 23.0428 222.302 22.8709C222.448 22.6894 222.637 22.5463 222.851 22.4539C223.073 22.3485 223.337 22.2958 223.642 22.2958C223.947 22.2958 224.21 22.3485 224.432 22.4539C224.661 22.5516 224.848 22.6902 224.993 22.8709C225.138 23.0428 225.245 23.2537 225.314 23.5007C225.382 23.7409 225.417 24.0036 225.417 24.2897V28.3206C225.417 28.6057 225.382 28.8723 225.314 29.1203C225.245 29.3605 225.138 29.5695 224.993 29.7501C224.848 29.923 224.661 30.0626 224.432 30.1671C224.21 30.2647 223.947 30.3136 223.642 30.3136C223.337 30.3136 223.073 30.2647 222.851 30.1671C222.64 30.0696 222.452 29.9273 222.302 29.7501C222.16 29.5616 222.055 29.3478 221.993 29.1203C221.922 28.8594 221.887 28.59 221.889 28.3196V24.2897ZM222.416 28.3548C222.416 28.7824 222.508 29.1389 222.691 29.424C222.882 29.7013 223.199 29.8409 223.642 29.8409C224.084 29.8409 224.402 29.7013 224.592 29.424C224.791 29.1389 224.89 28.7824 224.89 28.3548V24.2555C224.89 23.8278 224.791 23.4744 224.592 23.197C224.402 22.9119 224.084 22.7693 223.642 22.7693C223.199 22.7693 222.882 22.9119 222.691 23.197C222.508 23.4753 222.416 23.8278 222.416 24.2555V28.3548ZM231.783 30.2345H231.256L229.561 23.2644V30.2462H229.091V22.3641H229.847L231.531 29.3342L233.203 22.3641H233.959V30.2462H233.455V23.242L231.783 30.2345ZM239.191 25.607C239.84 25.607 240.314 25.7603 240.611 26.0688C240.909 26.3764 241.057 26.8451 241.057 27.4759V28.3313C241.057 28.6174 241.023 28.8801 240.955 29.1203C240.899 29.3415 240.798 29.5485 240.657 29.7277C240.52 29.8937 240.34 30.0206 240.118 30.1104C239.867 30.2076 239.598 30.2537 239.329 30.2462H237.679V22.3641H238.206V25.606H239.191V25.607ZM242.34 22.3641V30.2462H241.814V22.3641H242.34ZM239.329 29.7726C239.779 29.7726 240.092 29.6456 240.268 29.3898C240.444 29.135 240.531 28.7942 240.531 28.3655V27.4418C240.531 26.9613 240.424 26.6166 240.21 26.4067C239.996 26.1889 239.657 26.0796 239.191 26.0796H238.206V29.7726H239.329ZM246.593 22.3641V29.7726H248.574V22.3641H249.101V29.7726H251.082V22.3641H251.609V30.2462H246.065V22.3641H246.593ZM256.928 22.8367L256.722 28.3206C256.708 28.5734 256.681 28.8253 256.642 29.0754C256.617 29.2886 256.551 29.4949 256.447 29.6828C256.346 29.8574 256.199 30.0015 256.023 30.0997C255.847 30.1974 255.611 30.2501 255.313 30.2569H255.21V29.7843C255.439 29.7843 255.615 29.7472 255.737 29.672C255.86 29.5965 255.96 29.487 256.023 29.3566C256.094 29.212 256.137 29.0553 256.149 28.8947C256.172 28.7151 256.187 28.5266 256.195 28.3313L256.435 22.3641H259.425V30.2462H258.886V22.8367H256.928ZM265.877 26.0122V26.4848H263.69V29.7726H266.324V30.2462H263.163V22.3641H266.324V22.8367H263.69V26.0122H265.877ZM270.511 26.5405V30.2462H269.984V22.3641H270.511V26.0688H273.008V22.3641H273.546V30.2462H273.008V26.5405H270.511ZM277.79 26.5405V30.2462H277.263V22.3641H277.79V26.0688H280.287V22.3641H280.825V30.2462H280.287V26.5405H277.79ZM286.054 25.607C286.703 25.607 287.177 25.7603 287.475 26.0688C287.772 26.3764 287.922 26.8451 287.922 27.4759V28.3313C287.922 28.6174 287.887 28.8801 287.818 29.1203C287.763 29.3415 287.661 29.5485 287.52 29.7277C287.383 29.8937 287.203 30.0206 286.983 30.1104C286.731 30.2075 286.462 30.2536 286.192 30.2462H284.543V22.3641H285.069V25.606H286.054V25.607ZM289.204 22.3641V30.2462H288.677V22.3641H289.204ZM286.192 29.7726C286.643 29.7726 286.955 29.6456 287.131 29.3898C287.307 29.135 287.394 28.7942 287.394 28.3655V27.4418C287.394 26.9613 287.288 26.6166 287.074 26.4067C286.861 26.1889 286.52 26.0796 286.054 26.0796H285.069V29.7726H286.192ZM295.93 20.9004C295.922 21.208 295.812 21.4443 295.598 21.6093C295.384 21.7753 295.109 21.8573 294.773 21.8573C294.445 21.8573 294.174 21.7743 293.96 21.6093C293.747 21.4443 293.635 21.208 293.628 20.9004H293.994C294.002 21.125 294.082 21.2861 294.235 21.3837C294.388 21.4814 294.567 21.5302 294.773 21.5302C294.987 21.5302 295.171 21.4814 295.323 21.3837C295.475 21.2861 295.56 21.125 295.575 20.9004H295.93ZM293.503 30.2452H292.93V22.3641H293.411V29.1086L294.418 26.3051L295.872 22.3641H296.503V30.2462H296.022V23.2761L293.503 30.2452ZM298.422 22.3524C299.018 22.3524 299.426 22.5067 299.647 22.8143C299.869 23.115 299.979 23.5427 299.979 24.0983V28.5002C299.979 28.7785 299.953 29.0256 299.899 29.2433C299.853 29.4543 299.769 29.6339 299.647 29.7843C299.522 29.9423 299.356 30.0629 299.166 30.1329C298.927 30.2148 298.675 30.2531 298.422 30.2462H298.17V29.8068H298.399C298.819 29.8068 299.098 29.6896 299.235 29.4582C299.38 29.2248 299.453 28.9055 299.453 28.5012V24.0973C299.453 23.6999 299.38 23.3845 299.235 23.1521C299.098 22.9119 298.819 22.7908 298.399 22.7908H298.17V22.3524H298.422Z" fill="#2B2A29"/>
<path fill-rule="evenodd" clip-rule="evenodd" d="M53.9931 67.8042L49.844 67.6304C47.0629 68.9857 45.3098 70.3586 43.1883 71.6925L47.7274 71.9112L45.7475 73.4843L40.8322 73.2421C38.1743 75.075 36.1163 76.7936 34.5625 78.2553L41.5681 78.5912L39.9704 80.8195L32.4674 80.3801C31.1062 81.88 30.5326 82.7949 30.5326 82.7949L26.4479 82.7793C27.1618 81.8817 27.9045 81.0073 28.6749 80.1575L9.69771 79.0463C6.30585 81.2677 4.63191 82.6973 4.63191 82.6973L1.10423 82.6836C2.53558 81.3212 4.0304 80.0269 5.5837 78.8051L0.0136719 78.7846L3.31074 76.9625L8.00813 76.9801C10.5465 75.1629 13.1902 73.4974 15.9254 71.9922L10.7032 71.9952L13.9984 70.4895L18.7241 70.507C34.801 62.3301 54.6586 58.0053 73.7795 55.8746L79.7013 55.2106L84.9489 55.9166C82.6857 56.3716 70.8948 59.6389 68.8251 60.1545L70.6388 60.3068L68.0267 61.3009L65.6443 61.1798C63.255 61.8477 62.5632 62.2705 60.4427 62.999L63.1006 63.1474L61.0544 64.1434L58.2352 63.867C55.9945 64.6961 54.3655 65.5524 52.4306 66.4205L56.27 66.5826L53.9931 67.8042ZM12.6264 77.2017C15.0625 75.7272 18.0596 74.0458 21.6274 72.2784L36.4847 73.0244C34.4373 74.5755 32.4949 76.2603 30.6703 78.0678L12.6264 77.2017ZM38.6218 71.4698L24.7114 70.797C27.3782 69.5569 30.77 68.0024 33.9772 66.7486L45.1759 67.4458C42.9181 68.6649 40.7301 70.0077 38.6218 71.4698ZM68.4694 57.3647C70.5264 56.9995 77.0052 56.0836 79.1648 55.7662L81.4319 55.9977C79.4521 56.3082 75.7397 57.2544 73.7726 57.644L68.4694 57.3647ZM65.2348 57.9672L71.1508 58.1908C69.2179 58.6136 67.2967 59.0794 65.3951 59.5901L59.0453 59.2698C61.0515 58.8138 63.1143 58.3783 65.2339 57.9672H65.2348ZM55.63 60.0774C52.4902 60.5734 51.128 61.0148 48.2892 61.6719L57.0205 62.375C59.2163 61.545 59.9267 61.1808 62.1997 60.4982L55.63 60.0774ZM46.1316 62.5566L54.0107 63.3671C51.9733 64.1902 50.3736 64.8171 48.43 65.7848L37.3407 65.1814C39.9254 64.2322 43.2274 63.4599 46.1316 62.5566Z" fill="url(#paint0_linear_33_945)"/>
<path d="M22.8047 36.2173L29.5825 28.5745V65.2771C27.2993 66.146 25.0392 67.0746 22.8047 68.062V36.2173Z" fill="url(#paint1_linear_33_945)"/>
<path d="M30.7622 27.0209L37.5401 19.0197V62.5273C34.8811 63.3388 33.3967 63.8622 30.7622 64.8318V27.0209Z" fill="url(#paint2_linear_33_945)"/>
<path d="M45.5278 8.38788L38.8408 0V62.1367C41.4421 61.3575 42.904 60.9415 45.5278 60.2834V8.38788Z" fill="url(#paint3_linear_33_945)"/>
<path d="M53.5522 17.7679L46.8652 9.40536V59.9475C49.4773 59.346 50.9411 59.0247 53.5522 58.4955V17.7679Z" fill="url(#paint4_linear_33_945)"/>
<path d="M61.751 27.4535L54.9185 19.1466V58.2367C57.5901 57.7534 59.0862 57.5063 61.751 57.1157V27.4535Z" fill="url(#paint5_linear_33_945)"/>
</g>
<defs>
<linearGradient id="paint0_linear_33_945" x1="69.4964" y1="53.7225" x2="69.3861" y2="82.9414" gradientUnits="userSpaceOnUse">
<stop stop-color="#A1A7AA"/>
<stop offset="1" stop-color="#535150"/>
</linearGradient>
<linearGradient id="paint1_linear_33_945" x1="27.7796" y1="33.5779" x2="27.7796" y2="63.6708" gradientUnits="userSpaceOnUse">
<stop offset="0.077" stop-color="#A1A7AA"/>
<stop offset="1" stop-color="#535150"/>
</linearGradient>
<linearGradient id="paint2_linear_33_945" x1="27.7798" y1="33.5779" x2="27.7798" y2="63.6708" gradientUnits="userSpaceOnUse">
<stop offset="0.077" stop-color="#A1A7AA"/>
<stop offset="1" stop-color="#535150"/>
</linearGradient>
<linearGradient id="paint3_linear_33_945" x1="55.7776" y1="24.0026" x2="55.7776" y2="66.235" gradientUnits="userSpaceOnUse">
<stop stop-color="#00ECFF"/>
<stop offset="0.349" stop-color="#08E0F1"/>
<stop offset="1" stop-color="#019AAA"/>
</linearGradient>
<linearGradient id="paint4_linear_33_945" x1="55.7773" y1="24.0026" x2="55.7773" y2="66.235" gradientUnits="userSpaceOnUse">
<stop stop-color="#00ECFF"/>
<stop offset="0.349" stop-color="#08E0F1"/>
<stop offset="1" stop-color="#019AAA"/>
</linearGradient>
<linearGradient id="paint5_linear_33_945" x1="55.7774" y1="24.0026" x2="55.7774" y2="66.235" gradientUnits="userSpaceOnUse">
<stop stop-color="#00ECFF"/>
<stop offset="0.349" stop-color="#08E0F1"/>
<stop offset="1" stop-color="#019AAA"/>
</linearGradient>
<clipPath id="clip0_33_945">
<rect width="300" height="83" fill="white"/>
</clipPath>
</defs>
</svg>
